<svg xmlns="http://www.w3.org/2000/svg" viewBox="0 0 200 500">
  <g fill="currentColor">
    <circle cx="100" cy="50" r="30" />
    <path d="M65 90
             Q100 70 135 90
             Q150 125 140 170
             Q135 210 155 250
             Q160 270 140 300
             Q120 330 100 330
             Q80 330 60 300
             Q40 270 45 250
             Q65 210 60 170
             Q50 125 65 90 Z" />
    <rect x="25" y="120" width="22" height="150" rx="11" />
    <rect x="153" y="120" width="22" height="150" rx="11" />
    <rect x="70" y="320" width="25" height="150" rx="12" />
    <rect x="105" y="320" width="25" height="150" rx="12" />
  </g>
</svg>
