<svg version="1.1" xmlns="http://www.w3.org/2000/svg" x="0px" y="0px" width="248.333px" height="557.994px" viewBox="0 0 248.333 557.994" enable-background="new 0 0 248.333 557.994" overflow="visible">
<style type="text/css">
.muscle {
    cursor: pointer;
    box-shadow: -10px 10px 0 0 rgba(0, 0, 0, .1);
}

.muscle:hover,
.muscle.active,
.muscle.focus{
    stroke: red;
    stroke-width: 3;
    fill: #c0133c;
    fill-opacity: 0.5;
}

#tooltip {
    dominant-baseline: hanging;
}
</style>
<g id="Body_x5F_base_x5F_back">
<linearGradient id="SVGID_1_" gradientUnits="userSpaceOnUse" x1="15.3335" y1="274.7173" x2="232.4595" y2="274.7173">
<stop offset="0" style="stop-color: rgb(66, 186, 191);"></stop>
<stop offset="1" style="stop-color: rgb(149, 206, 189);"></stop>
</linearGradient>
<linearGradient id="grad" gradientTransform="rotate(90)">
<stop offset="5%" stop-color="#C70D6C"></stop>
<stop offset="95%" stop-color="#BB1817"></stop>
</linearGradient>
<path fill="#FFFFFF" stroke="url(#SVGID_1_)" stroke-miterlimit="10" d="M148.208,42.832l0.626-6.5c0.25-2.125,1-12.375-3.75-21
 c-3.612-6.558-8.667-9.083-15.834-10.75c-1.476-0.343-5.453-0.611-6.917-0.417c-2.246,0.299-4.574,0.745-6.667,1.5
 c-3.428,1.236-6.233,3.074-9.116,5.324c-1.511,1.179-2.861,2.679-3.842,4.343c-4.125,7-4.875,14.375-4.375,22.125l2.375,15.75
 c0,0,2.25,7.5,4.625,10.875c0,0,0.5,8.5-1,12.125c0,0-13.125,11-17.625,14.625s-12,7.375-13.5,8s-5.75,2.625-6.5,3.5
 c0,0-9.125,4.125-14.125,14.375s-3.375,28.75-2.25,33.25c0,0,0.25,2.875,0,4s-2.375,30.5-2.125,33.875c0,0-0.125,1.5-1.625,5.5
 s-4.75,14.125-5.25,21.25s0.375,45.375,0,48.125s-0.75,9.75-1.125,10.75s-3.375,3-4.25,3.75s-9,7-9,7s-3.125,5-3.5,7.625
 s-4.375,8.125-5.125,8.875s-2.5,2.625-2.5,2.625s0,1.5,1.625,2s5.125-0.125,6.625-1.5s2.5-4.125,4-6.125s3.625-4,3.625-4
 s-0.125,7.875,0.125,9.75s0.625,23.375,0.625,24s0.5,2.875,1.75,3.25s2.875,0.5,3.625-0.375c0,0,0,3.5,0.75,4.375s2,1.75,2.875,1.5
 s2-1,2.25-1.875s0.375-4.125,0.375-4.125s0.25,2.75,2,2.75s3.125-1.125,3.25-1.75s1-13.25,1.25-15c0,0,0.375,8.5,1.125,9
 s2.25,0.75,3.125,0s0.875-4.75,0.875-4.75s0.625-6.625,0.875-7.625s1.25-6.5,1.375-7.125s0.875-5.125,0.875-5.125
 s-0.125-14.875-0.125-16.625s0-4.625,0-6.125s0.375-3.75,0.375-3.75s2-14.5,4.375-22.625s6.5-18.5,7.375-22
 s2.125-14.375,2.25-22.625c0,0,0.125-8.375,1-13.125s3.25-12,3.25-12s1,7.5,2.5,11.875s2.375,11.625,2,14.75s-1.75,19.25-1.75,21
 c0,0-3.25,9.875-4.125,14s-3.875,17-4.375,19.875s-4.25,47.292-1.083,68.125s13,45.167,13,45.167s1.499,8.999,1.333,11.666
 S86,400.332,86,400.332s0.5,1.167,0.333,3.5s-0.333,29.499,0.5,40.166s9.333,35.501,10.5,40.334s5.833,35.999,5.5,38.666
 c0,0-2,3.001-2.833,4.334s-1.333,4.5-6.5,7.5s-7.666,5-7.833,5.5s0.166,3.333,0.166,3.333s2.168,1.333,3.334,1.5s5-0.167,7.5-0.167
 s6.666-0.666,8.166-0.666s6.334,0.499,7.167,0.666s5.501,0.334,6.667,0.334s3.167,0.167,6.5-2c0,0,1.558,1.3,3.949,1.705
 l0.009,0.295c1.166,0,5.834-0.167,6.667-0.334s5.667-0.666,7.167-0.666c0.146,0,0.324,0.008,0.518,0.02
 c0.221,0.045,0.449,0.093,0.69,0.146l-0.027-0.097c1.914,0.17,4.982,0.597,6.985,0.597c2.5,0,6.334,0.334,7.5,0.167
 s3.334-1.5,3.334-1.5s0.333-2.833,0.166-3.333s-2.666-2.5-7.833-5.5s-5.667-6.167-6.5-7.5s-2.833-4.334-2.833-4.334
 c-0.333-2.667,4.333-33.833,5.5-38.666s9.667-29.667,10.5-40.334s0.667-37.833,0.5-40.166s0.333-3.5,0.333-3.5
 s1.333-9.5,1.167-12.167s1.333-11.666,1.333-11.666s9.833-24.334,13-45.167s-0.583-65.25-1.083-68.125s-3.5-15.75-4.375-19.875
 s-4.125-14-4.125-14c0-1.75-1.375-17.875-1.75-21s0.5-10.375,2-14.75s2.5-11.875,2.5-11.875s2.375,7.25,3.25,12s1,13.125,1,13.125
 c0.125,8.25,1.375,19.125,2.25,22.625s5,13.875,7.375,22s4.375,22.625,4.375,22.625s0.375,2.25,0.375,3.75s0,4.375,0,6.125
 s-0.125,16.625-0.125,16.625s0.75,4.5,0.875,5.125s1.125,6.125,1.375,7.125s0.875,7.625,0.875,7.625s0,4,0.875,4.75
 s2.375,0.5,3.125,0s1.125-9,1.125-9c0.25,1.75,1.125,14.375,1.25,15s1.5,1.75,3.25,1.75s2-2.75,2-2.75s0.125,3.25,0.375,4.125
 s1.375,1.625,2.25,1.875s2.125-0.625,2.875-1.5s0.75-4.375,0.75-4.375c0.75,0.875,2.375,0.75,3.625,0.375s1.75-2.625,1.75-3.25
 s0.375-22.125,0.625-24s0.125-9.75,0.125-9.75s2.125,2,3.625,4s2.5,4.75,4,6.125s5,2,6.625,1.5s1.625-2,1.625-2
 s-1.75-1.875-2.5-2.625s-4.75-6.25-5.125-8.875s-3.5-7.625-3.5-7.625s-8.125-6.25-9-7s-3.875-2.75-4.25-3.75s-0.75-8-1.125-10.75
 s0.5-41,0-48.125s-3.75-17.25-5.25-21.25s-1.625-5.5-1.625-5.5c0.25-3.375-1.875-32.75-2.125-33.875s0-4,0-4
 c1.125-4.5,2.75-23-2.25-33.25s-14.125-14.375-14.125-14.375c-0.75-0.875-5-2.875-6.5-3.5s-9-4.375-13.5-8
 s-17.625-14.625-17.625-14.625c-1.5-3.625-1-12.125-1-12.125c2.375-3.375,4.625-10.875,4.625-10.875l2.375-15.75
 c0.5-7.75-0.25-15.125-4.375-22.125c-0.981-1.665-2.33-3.164-3.842-4.343c-2.882-2.25-5.688-4.088-9.116-5.324
 c-2.093-0.755-4.421-1.201-6.667-1.5c-1.464-0.195-5.441,0.074-6.917,0.417c-7.167,1.667-12.221,4.192-15.834,10.75
 c-4.75,8.625-4,18.875-3.75,21, M123.474 545C123.628 544.347 123.969 542.553 124.092 540.595C124.247 538.147 123.938 538.147 123.319 533.252C122.701 528.358 122.855 528.358 122.546 521.505C122.237 514.652 122.082 512.694 122.082 511.715C122.082 510.736 121.309 505.352 121.155 498.989C121 492.625 121.464 485.772 121.464 484.793C121.464 483.815 122.082 462.767 122.237 458.361C122.391 453.956 122.546 446.614 122.391 438.293C122.237 429.971 121.618 418.224 121.309 413.818C121.062 410.294 121 407.129 121 405.987C121.258 400.113 121.804 387.876 121.928 385.918C122.082 383.47 122.082 375.639 122.237 371.233C122.361 367.709 122.804 352.143 123.01 344.801L123.319 333.543L123.474 317.39V289.979C123.525 289.653 123.783 289 124.401 289C125.02 289 125.381 289.653 125.484 289.979V296.342C125.484 304.011 125.484 321.012 125.484 327.669C125.484 334.326 125.69 339.906 125.793 341.864L126.257 356.549C126.411 361.117 126.721 370.352 126.721 370.744C126.721 371.233 126.875 379.065 126.875 382.981C126.875 386.114 127.287 394.402 127.494 398.155C127.597 399.95 127.834 404.127 127.957 406.476C128.081 408.826 127.906 410.718 127.803 411.371C127.803 411.371 126.566 435.845 126.411 445.145C126.288 452.585 126.566 459.667 126.721 462.277L127.339 479.409C127.494 484.304 127.803 494.485 127.803 496.052C127.803 498.01 127.648 501.925 127.03 509.268C126.411 516.61 126.411 519.057 126.411 520.526C126.411 521.994 126.257 525.91 126.102 528.358C125.948 530.805 125.793 531.784 125.02 536.679C124.865 537.331 124.587 539.126 124.711 541.084C124.834 543.042 125.278 544.511 125.484 545"/>
</g>


<!-- Deltoid (Left) -->
<linearGradient id="SVGID_deltoid_left" gradientUnits="userSpaceOnUse" x1="73.0684" y1="102.5601" x2="68.8198" y2="151.1216">
<stop offset="0" style="stop-color: rgb(181,98,69);"></stop>
<stop offset="1" style="stop-color: rgb(183,82,44);"></stop>
</linearGradient>

<!-- Deltoid (Right) -->
<linearGradient id="SVGID_deltoid_right" gradientUnits="userSpaceOnUse" x1="519.7339" y1="102.5601" x2="515.4853" y2="151.1216" gradientTransform="matrix(-1 0 0 1 694.6768 0)">
<stop offset="0" style="stop-color: rgb(181,98,69);"></stop>
<stop offset="1" style="stop-color: rgb(183,82,44);"></stop>
</linearGradient>

<g id="deltoid" class="muscle">
<path data-tooltip-text="Deltoid" class="tooltip-trigger" fill="url(#SVGID_deltoid_left)" d="M93.167,107.318c0,0-7.666-0.667-13.166-1.833c-4.532-0.961-10.865-2.825-12.956-3.452
 c-0.141,0.108-0.26,0.21-0.336,0.299c0,0-9.125,4.125-14.125,14.375c-4.844,9.93-3.47,27.603-2.356,32.788L51,148.818
 c0,0,4.333-16,7.166-21.5s11.167-10.333,16-11.333s12.167-3.333,16.834-5.667S93.167,107.318,93.167,107.318z"></path>
<path data-tooltip-text="Deltoid" class="tooltip-trigger" fill="url(#SVGID_deltoid_right)" d="M154.844,107.318c0,0,7.666-0.667,13.166-1.833c4.532-0.961,10.865-2.825,12.956-3.452
 c0.141,0.108,0.26,0.21,0.336,0.299c0,0,9.125,4.125,14.125,14.375c4.844,9.93,3.47,27.603,2.356,32.788l-0.773-0.677
 c0,0-4.333-16-7.166-21.5s-11.167-10.333-16-11.333s-12.167-3.333-16.834-5.667S154.844,107.318,154.844,107.318z"></path>
</g>

<!-- Infraspinatus & Teres Major (Left) -->
<linearGradient id="SVGID_infraspinatus_teres_major_left" gradientUnits="userSpaceOnUse" x1="78.5542" y1="107.9058" x2="75.1761" y2="146.5175">
<stop offset="0" style="stop-color: rgb(181,98,69);"></stop>
<stop offset="1" style="stop-color: rgb(183,82,44);"></stop>
</linearGradient>

<!-- Infraspinatus & Teres Major (Right) -->
<linearGradient id="SVGID_infraspinatus_teres_major_right" gradientUnits="userSpaceOnUse" x1="525.2202" y1="107.9048" x2="521.8421" y2="146.5166" gradientTransform="matrix(-1 0 0 1 694.6768 0)">
<stop offset="0" style="stop-color: rgb(181,98,69);"></stop>
<stop offset="1" style="stop-color: rgb(183,82,44);"></stop>
</linearGradient>

<g id="infraspinatus_teres_major" class="muscle">
<path data-tooltip-text="Infraspinatus &amp; Teres Major" class="tooltip-trigger" fill="url(#SVGID_infraspinatus_teres_major_left)" d="M56.5,134.482c0,0,2-6.667,4.833-9.833s10.666-7,15.333-7.667s16.833-6.167,18-7.667
 c0,0,0.167,2.667,0.167,4.333s0.333,28.667,0.333,29.833s-2.333,2.5-2.333,2.5s-13.333,0.333-14,0.833s-8.667-10.5-9-11.833
 s0.333-7.667,0.333-7.667S62.167,126.149,56.5,134.482z"></path>
<path data-tooltip-text="Infraspinatus &amp; Teres Major" class="tooltip-trigger" fill="url(#SVGID_infraspinatus_teres_major_right)" d="M191.51,134.482c0,0-2-6.667-4.833-9.833s-10.666-7-15.333-7.667s-16.833-6.167-18-7.667
 c0,0-0.167,2.667-0.167,4.333s-0.333,28.667-0.333,29.833s2.333,2.5,2.333,2.5s13.333,0.333,14,0.833s8.667-10.5,9-11.833
 s-0.333-7.667-0.333-7.667S185.843,126.149,191.51,134.482z"></path>
</g>

<!-- Trapezius (Left) -->
<linearGradient id="SVGID_trapezius_left" gradientUnits="userSpaceOnUse" x1="105.4185" y1="49.4941" x2="93.6938" y2="183.5076">
<stop offset="0" style="stop-color: rgb(124,67,89);"></stop>
<stop offset="1" style="stop-color: rgb(78,46,54);"></stop>
</linearGradient>

<!-- Trapezius (Right) -->
<linearGradient id="SVGID_trapezius_right" gradientUnits="userSpaceOnUse" x1="584.7524" y1="49.4941" x2="573.0278" y2="183.5076" gradientTransform="matrix(-1 0 0 1 727.0186 0)">
<stop offset="0" style="stop-color: rgb(124,67,89);"></stop>
<stop offset="1" style="stop-color: rgb(78,46,54);"></stop>
</linearGradient>

<g id="trapezius_lower" class="muscle">
<path data-tooltip-text="Trapezius" class="tooltip-trigger" fill="url(#SVGID_trapezius_left)" d="M120.375,115.082c1.549,4.417,0.38,11.027-0.417,18c-1,8.75-1.904,31.375-1.875,32.875
 c0.125,6.375,0.75,19.75,0.75,19.75s-8.334-12.888-9.167-14.222s-9.5-18-9.5-18s-3.833-6-3.833-7.667s2-16.611,3.625-22.111
 c0.852-2.881,0.875-3.875,2.625-8.5c3.805-10.055,2.5-10.625,2.5-10.625s0.023,0.002,0.028,0.002
 c-0.235-0.305-0.611-0.752-0.611-0.752s-0.937-1.404-2.292-2.375c-2.792-2-4.208-1.625-5.375-1.625s-7,0.75-11.875-0.125
 c-2.718-0.488-5.31-1.142-9.077-2.167c3.001-1.542,7.655-4.153,10.827-6.708c4.5-3.625,17.625-14.625,17.625-14.625
 c0.12-0.291,0.217-0.625,0.304-0.978c0.61-0.359,1.196-0.767,1.696-1.231c2.333-2.167,5.167-4.833,6-7.5s1.167-7.333,1.167-10.5
 s2-5,3-5.333c0,0,3-1,3.5,2.833s0.332,12.167-0.334,15.333s-3.749,12.625-4.083,13.625c-0.211,0.631-0.296,1.331-0.398,1.985
 c-0.423,2.704-0.602,5.489-0.525,8.224C114.66,92.666,114.5,98.332,120.375,115.082z"></path>
<path data-tooltip-text="Trapezius" class="tooltip-trigger" fill="url(#SVGID_trapezius_right)" d="M127.309,115.082c-1.549,4.417-0.38,11.027,0.417,18c1,8.75,1.904,31.375,1.875,32.875
 c-0.125,6.375-0.75,19.75-0.75,19.75s8.334-12.888,9.167-14.222s9.5-18,9.5-18s3.833-6,3.833-7.667s-2-16.611-3.625-22.111
 c-0.852-2.881-0.875-3.875-2.625-8.5c-3.805-10.055-2.5-10.625-2.5-10.625s-0.023,0.002-0.028,0.002
 c0.235-0.305,0.611-0.752,0.611-0.752s0.937-1.404,2.292-2.375c2.792-2,4.208-1.625,5.375-1.625s7,0.75,11.875-0.125
 c2.718-0.488,5.31-1.142,9.077-2.167c-3.001-1.542-7.655-4.153-10.827-6.708c-4.5-3.625-17.625-14.625-17.625-14.625
 c-0.12-0.291-0.217-0.625-0.304-0.978c-0.61-0.359-1.196-0.767-1.696-1.231c-2.333-2.167-5.167-4.833-6-7.5
 s-1.167-7.333-1.167-10.5s-2-5-3-5.333c0,0-3-1-3.5,2.833s-0.332,12.167,0.334,15.333s3.749,12.625,4.083,13.625
 c0.211,0.631,0.296,1.331,0.398,1.985c0.423,2.704,0.602,5.489,0.525,8.224C133.025,92.666,133.184,98.332,127.309,115.082z"></path>
</g>

<!-- Latissimus Dorsi (Left) -->
<linearGradient id="SVGID_back_4_" gradientUnits="userSpaceOnUse" x1="101.9858" y1="147.6543" x2="93.3861" y2="245.9497">
<stop offset="0" style="stop-color: rgb(94,100,75);"></stop>
<stop offset="1" style="stop-color: rgb(95,103,55);"></stop>
</linearGradient>

<!-- Latissimus Dorsi (Right) -->
<linearGradient id="SVGID_back_34_" gradientUnits="userSpaceOnUse" x1="581.4858" y1="147.6543" x2="572.8861" y2="245.9497" gradientTransform="matrix(-1 0 0 1 727.2686 0)">
<stop offset="0" style="stop-color: rgb(94,100,75);"></stop>
<stop offset="1" style="stop-color: rgb(95,103,55);"></stop>
</linearGradient>

<g id="latissimus_dorsi" class="muscle">
<path data-tooltip-text="Latissimus Dorsi" class="tooltip-trigger" fill="url(#SVGID_back_4_)" d="M113.743,239.597c0.521,1.219,1.506,4.256,1.981,5.907c0.234,0.813,0.526,1.578,0.609,2.453
 l-19.438-12.813c0,0-0.313-5.875-1.813-9.75s-8.563-15.625-8.813-16.813c-0.157-0.749-2.771-4.25-4.684-6.739
 c-0.353-2.871-0.966-5.962-1.754-8.261c-1.164-3.395-2.024-8.656-2.353-10.85c0.122-0.251,0.329-0.785,0.665-1.962
 c0.625-2.188,1.25-8.688,1.375-13.563s-0.75-18.5-0.75-18.5s0.25-0.813,0.688-0.938s12.938-0.688,12.938-0.688
 s1.875-0.313,2.5,0.063s2,2.563,2,2.563s2.75,4.813,2.813,5.625s5.5,11.25,6.125,12.625c2.188,4.812,5.419,7.57,12.813,20.125
 c0,0,1.5,2.125,1.063,5.125c-0.328,2.247-2.312,5.379-3.875,6.625c-2.149,1.713-4.722,3.6-6,6
 c-1.537,2.887-2.552,5.082-2.833,8.333C107,214.166,107.152,224.196,113.743,239.597z"></path>
<path data-tooltip-text="Latissimus Dorsi" class="tooltip-trigger" fill="url(#SVGID_back_34_)" d="M134.026,239.597c-0.521,1.219-1.506,4.256-1.981,5.907c-0.234,0.813-0.526,1.578-0.609,2.453
 l19.438-12.813c0,0,0.313-5.875,1.813-9.75s8.563-15.625,8.813-16.813c0.157-0.749,2.771-4.25,4.684-6.739
 c0.353-2.871,0.966-5.962,1.754-8.261c1.164-3.395,2.024-8.656,2.353-10.85c-0.122-0.251-0.329-0.785-0.665-1.962
 c-0.625-2.188-1.25-8.688-1.375-13.563s0.75-18.5,0.75-18.5s-0.25-0.813-0.688-0.938s-12.938-0.688-12.938-0.688
 s-1.875-0.313-2.5,0.063s-2,2.563-2,2.563s-2.75,4.813-2.813,5.625s-5.5,11.25-6.125,12.625c-2.188,4.812-5.419,7.57-12.813,20.125
 c0,0-1.5,2.125-1.063,5.125c0.328,2.247,2.312,5.379,3.875,6.625c2.149,1.713,4.722,3.6,6,6c1.537,2.887,2.552,5.082,2.833,8.333
 C140.768,214.166,140.617,224.196,134.026,239.597z"></path>
</g>

<!-- External Oblique (Left) -->
<linearGradient id="SVGID_back_5_" gradientUnits="userSpaceOnUse" x1="89.8174" y1="204.8501" x2="87.291" y2="233.7266">
<stop offset="0" style="stop-color: rgb(124,111,80);"></stop>
<stop offset="1" style="stop-color: rgb(127,113,51);"></stop>
</linearGradient>

<!-- External Oblique (Right) -->
<linearGradient id="SVGID_back_20_" gradientUnits="userSpaceOnUse" x1="536.4819" y1="204.8501" x2="533.9556" y2="233.7261" gradientTransform="matrix(-1 0 0 1 694.6768 0)">
<stop offset="0" style="stop-color: rgb(124,111,80);"></stop>
<stop offset="1" style="stop-color: rgb(127,113,51);"></stop>
</linearGradient>

<g id="external_oblique" class="muscle">
<path data-tooltip-text="External Oblique" class="tooltip-trigger" fill="url(#SVGID_back_5_)" d="M94.5,227.416c-0.167-0.833-2.333-5.667-2.75-6.25s-4.333-8.083-4.916-8.833s-1.084-2-2.25-4.417
 c-0.66-1.368-1.854-2.789-2.767-3.765c0.125,1.673,0.139,3.153,0.016,4.182c-0.337,2.808-1.48,16.101-1.709,20.044
 c6.213-0.847,15.043,6.04,15.043,6.04C95.917,232.416,94.667,228.249,94.5,227.416z"></path>
<path data-tooltip-text="External Oblique" class="tooltip-trigger" fill="url(#SVGID_back_20_)" d="M153.51,227.416c0.167-0.833,2.333-5.667,2.75-6.25s4.333-8.083,4.916-8.833s1.084-2,2.25-4.417
 c0.66-1.368,1.854-2.789,2.767-3.765c-0.125,1.673-0.139,3.153-0.016,4.182c0.337,2.808,1.48,16.101,1.709,20.044
 c-6.213-0.847-15.043,6.04-15.043,6.04C152.093,232.416,153.343,228.249,153.51,227.416z"></path>
</g>

<!-- Gluteus Medius (Left) -->
<linearGradient id="SVGID_back_6_" gradientUnits="userSpaceOnUse" x1="89.0908" y1="231.0371" x2="86.382" y2="261.9984">
<stop offset="0" style="stop-color: rgb(126,155,161);"></stop>
<stop offset="1" style="stop-color: rgb(101,142,165);"></stop>
</linearGradient>

<!-- Gluteus Medius (Right) -->
<linearGradient id="SVGID_back_21_" gradientUnits="userSpaceOnUse" x1="535.7573" y1="231.0371" x2="533.0486" y2="261.998" gradientTransform="matrix(-1 0 0 1 694.6768 0)">
<stop offset="0" style="stop-color: rgb(126,155,161);"></stop>
<stop offset="1" style="stop-color: rgb(101,142,165);"></stop>
</linearGradient>

<g id="gluteus_medius2" class="muscle">
<path data-tooltip-text="Gluteus Medius" class="tooltip-trigger" fill="url(#SVGID_back_6_)" d="M82.458,230.457c0,0,12.625,5.625,16,9.25c0,0-10,8.75-12.75,10.75s-8,8.625-8.375,10.75
 C77.333,261.207,75.583,241.707,82.458,230.457z"></path>
<path data-tooltip-text="Gluteus Medius" class="tooltip-trigger" fill="url(#SVGID_back_21_)" d="M165.552,230.457c0,0-12.625,5.625-16,9.25c0,0,10,8.75,12.75,10.75s8,8.625,8.375,10.75
 C170.677,261.207,172.427,241.707,165.552,230.457z"></path>
</g>

<!-- Gluteus Maximus (Left) -->
<linearGradient id="SVGID_back_7_" gradientUnits="userSpaceOnUse" x1="103.5537" y1="240.75" x2="98.7226" y2="295.9702">
<stop offset="0" style="stop-color: rgb(126,155,201);"></stop>
<stop offset="1" style="stop-color: rgb(101,142,205);"></stop>
</linearGradient>

<!-- Gluteus Maximus (Right) -->
<linearGradient id="SVGID_back_22_" gradientUnits="userSpaceOnUse" x1="550.2202" y1="240.7495" x2="545.389" y2="295.9697" gradientTransform="matrix(-1 0 0 1 694.6768 0)">
<stop offset="0" style="stop-color: rgb(126,155,201);"></stop>
<stop offset="1" style="stop-color: rgb(101,142,205);"></stop>
</linearGradient>

<g id="gluteus_maximus" class="muscle">
<path data-tooltip-text="Gluteus Maximus" class="tooltip-trigger" fill="url(#SVGID_back_7_)" d="M100.208,240.457c0,0-10.375,9.25-14,11.75c0,0-6.375,6.375-8.375,12.75c0,0,0,10,1.5,16
 c0.834,3.336,5.875,12.75,14.125,14.375c9.011,1.775,17.401-0.644,24.245-6.841c1.965-1.779,4.134-4.485,4.979-7.035
 c0.598-1.808,1.286-3.745,1.401-5.624c0.337-5.48-0.854-10.738-2.824-15.924c-1.147-3.021-3.132-7.223-5.676-9.326
 C115.58,250.579,109.081,245.206,100.208,240.457z"></path>
<path data-tooltip-text="Gluteus Maximus" class="tooltip-trigger" fill="url(#SVGID_back_22_)" d="M147.802,240.457c0,0,10.375,9.25,14,11.75c0,0,6.375,6.375,8.375,12.75c0,0,0,10-1.5,16
 c-0.834,3.336-5.875,12.75-14.125,14.375c-9.011,1.775-17.401-0.644-24.245-6.841c-1.965-1.779-4.134-4.485-4.979-7.035
 c-0.598-1.808-1.286-3.745-1.401-5.624c-0.337-5.48,0.854-10.738,2.824-15.924c1.147-3.021,3.132-7.223,5.676-9.326
 C132.431,250.579,138.93,245.206,147.802,240.457z"></path>
</g>

<!-- Triceps (Left) -->
<linearGradient id="SVGID_triceps_left" gradientUnits="userSpaceOnUse" x1="67.2178" y1="128.4917" x2="59.7506" y2="213.8415">
<stop offset="0" style="stop-color: rgb(124,111,80);"></stop>
<stop offset="1" style="stop-color: rgb(127,113,51);"></stop>
</linearGradient>

<!-- Triceps (Right) -->
<linearGradient id="SVGID_triceps_right" gradientUnits="userSpaceOnUse" x1="513.8833" y1="128.4917" x2="506.4161" y2="213.8415" gradientTransform="matrix(-1 0 0 1 694.6768 0)">
<stop offset="0" style="stop-color: rgb(124,111,80);"></stop>
<stop offset="1" style="stop-color: rgb(127,113,51);"></stop>
</linearGradient>

<g id="triceps" class="muscle">
<path data-tooltip-text="Triceps" class="tooltip-trigger" fill="url(#SVGID_triceps_left)" d="M77.667,148.499c0,0-0.018,0.029-0.047,0.077c-0.181-0.739-0.787-0.927-0.787-0.927
 s-6.417-8.983-7.417-9.983s-1.333-3.667-1.333-3.667l0.167-5.417c0,0-5.334,1.333-7.417,3.233
 c-1.773,1.618-3.837,4.337-4.257,4.897c-0.05,0.067-0.076,0.103-0.076,0.103c-0.008,0.022-0.014,0.049-0.021,0.072
 c-1.061,1.107-1.645,2.444-1.646,2.444c0,0-2.708,8.958-2.708,9.292s-0.667,1.125-1.125,1.417c-0.14,0.089-0.382,0.132-0.648,0.154
 c0.053,0.707,0.188,2.832-0.019,3.763c-0.18,0.809-1.328,16.218-1.867,26.071c0.79,6.662,2.053,14.415,2.534,17.304
 c0.667,4,8.167,12.333,8.167,12.333s-0.167-1.833-0.834-3.5c-0.503-1.257-0.354-2.974-0.415-4.292
 c-0.113-2.436-0.146-4.872-0.189-7.309c-0.127-7.226,0.73-14.187,2.265-21.239l0.673-1.176c2-3.333,3.834-0.333,3.834-0.333
 l0.167,1.017c0.688,6.099,1.179,12.219,1.148,18.361c-0.021,4.179,0.321,8.661-0.315,12.806c0,0-0.167,1.167,0.5,1.667
 s3.501,5.833,3.167,9c0,0,2.238-2.776,3.827-4.849c0.043-1.02,0.074-2.021,0.089-2.984c0,0,0.125-8.375,1-13.125s3.25-12,3.25-12
 s0.333-1.708,1-9.208S78.501,150.999,77.667,148.499z"></path>
<path data-tooltip-text="Triceps" class="tooltip-trigger" fill="url(#SVGID_triceps_right)" d="M170.343,148.499c0,0,0.018,0.029,0.047,0.077c0.181-0.739,0.787-0.927,0.787-0.927
 s6.417-8.983,7.417-9.983s1.333-3.667,1.333-3.667l-0.167-5.417c0,0,5.334,1.333,7.417,3.233c1.773,1.618,3.837,4.337,4.257,4.897
 c0.05,0.067,0.076,0.103,0.076,0.103c0.008,0.022,0.014,0.049,0.021,0.072c1.061,1.107,1.645,2.444,1.646,2.444
 c0,0,2.708,8.958,2.708,9.292s0.667,1.125,1.125,1.417c0.14,0.089,0.382,0.132,0.648,0.154c-0.053,0.707-0.188,2.832,0.019,3.763
 c0.18,0.809,1.328,16.218,1.867,26.071c-0.79,6.662-2.053,14.415-2.534,17.304c-0.667,4-8.167,12.333-8.167,12.333
 s0.167-1.833,0.834-3.5c0.503-1.257,0.354-2.974,0.415-4.292c0.113-2.436,0.146-4.872,0.189-7.309
 c0.127-7.226-0.73-14.187-2.265-21.239l-0.673-1.176c-2-3.333-3.834-0.333-3.834-0.333l-0.167,1.017
 c-0.688,6.099-1.179,12.219-1.148,18.361c0.021,4.179-0.321,8.661,0.315,12.806c0,0,0.167,1.167-0.5,1.667s-3.501,5.833-3.167,9
 c0,0-2.238-2.776-3.827-4.849c-0.043-1.02-0.074-2.021-0.089-2.984c0,0-0.125-8.375-1-13.125s-3.25-12-3.25-12
 s-0.333-1.708-1-9.208S169.509,150.999,170.343,148.499z"></path>
</g>

<!-- Brachioradialis (Left) -->
<linearGradient id="SVGID_back_13_" gradientUnits="userSpaceOnUse" x1="47.019" y1="188.8379" x2="41.849" y2="247.932">
<stop offset="0" style="stop-color: rgb(66, 186, 191);"></stop>
<stop offset="1" style="stop-color: rgb(149, 206, 189);"></stop>
</linearGradient>

<!-- Brachioradialis (Right) -->
<linearGradient id="SVGID_back_26_" gradientUnits="userSpaceOnUse" x1="493.6851" y1="188.8389" x2="488.515" y2="247.9325" gradientTransform="matrix(-1 0 0 1 694.6768 0)">
<stop offset="0" style="stop-color: rgb(66, 186, 191);"></stop>
<stop offset="1" style="stop-color: rgb(149, 206, 189);"></stop>
</linearGradient>

<!-- Brachioradialis -->
<g id="brachioradialis" class="muscle">
<path data-tooltip-text="Brachioradialis" class="tooltip-trigger" fill="url(#SVGID_back_13_)" d="M49.583,197.957c0-1.104-0.837-5.4-1.587-9.033c-0.208,0.863-0.614,2.278-1.413,4.408
 c-1.5,4-4.75,14.125-5.25,21.25c-0.311,4.423-0.091,20.835,0.03,33.308c2.354-15.106,6.578-37.367,6.97-38.933
 C48.833,206.957,49.583,199.957,49.583,197.957z"></path>
<path data-tooltip-text="Brachioradialis" class="tooltip-trigger" fill="url(#SVGID_back_26_)" d="M198.427,197.957c0-1.104,0.837-5.4,1.587-9.033c0.208,0.863,0.614,2.278,1.413,4.408
 c1.5,4,4.75,14.125,5.25,21.25c0.311,4.423,0.091,20.835-0.03,33.308c-2.354-15.106-6.578-37.367-6.97-38.933
 C199.177,206.957,198.427,199.957,198.427,197.957z"></path>
</g>

<!-- Finger Flexors (Left) -->
<linearGradient id="SVGID_back_14_" gradientUnits="userSpaceOnUse" x1="67.6968" y1="212.4321" x2="64.7825" y2="245.7429">
<stop offset="0" style="stop-color: rgb(177,200,135);"></stop>
<stop offset="1" style="stop-color: rgb(166,196,106);"></stop>
</linearGradient>

<!-- Finger Flexors (Right) -->
<linearGradient id="SVGID_back_27_" gradientUnits="userSpaceOnUse" x1="514.3628" y1="212.4331" x2="511.4485" y2="245.7434" gradientTransform="matrix(-1 0 0 1 694.6768 0)">
<stop offset="0" style="stop-color: rgb(177,200,135);"></stop>
<stop offset="1" style="stop-color: rgb(166,196,106);"></stop>
</linearGradient>

<!-- Finger Flexors -->
<g id="finger_flexors" class="muscle">
<path data-tooltip-text="Finger Flexors" class="tooltip-trigger" fill="url(#SVGID_back_14_)" d="M70.833,229.457c0.672-2.687,1.563-9.72,1.998-16.575l-3.373,3.075l-1.25,4.25
 c0,0-3.375,0.625-6.25-1.875c0,0,1.375,9.875,1.875,11.25c0.405,1.115,1.878,7.981,1.422,16.202
 C67.514,239.044,70.154,232.176,70.833,229.457z"></path>
<path data-tooltip-text="Finger Flexors" class="tooltip-trigger" fill="url(#SVGID_back_27_)" d="M177.177,229.457c-0.672-2.687-1.563-9.72-1.998-16.575l3.373,3.075l1.25,4.25
 c0,0,3.375,0.625,6.25-1.875c0,0-1.375,9.875-1.875,11.25c-0.405,1.115-1.878,7.981-1.422,16.202
 C180.497,239.044,177.857,232.176,177.177,229.457z"></path>
</g>

<!-- Finger Extensors (Left) -->
<linearGradient id="SVGID_finger_extensors_left" gradientUnits="userSpaceOnUse" x1="56.7437" y1="200.8711" x2="50.3853" y2="273.5476">
<stop offset="0" style="stop-color: rgb(177,240,135);"></stop>
<stop offset="1" style="stop-color: rgb(166,236,106);"></stop>
</linearGradient>

<!-- Finger Extensors (Right) -->
<linearGradient id="SVGID_finger_extensors_right" gradientUnits="userSpaceOnUse" x1="503.4077" y1="200.8706" x2="497.0493" y2="273.5476" gradientTransform="matrix(-1 0 0 1 694.6768 0)">
<stop offset="0" style="stop-color: rgb(177,240,135);"></stop>
<stop offset="1" style="stop-color: rgb(166,236,106);"></stop>
</linearGradient>

<g id="finger_extensors" class="muscle">
<path data-tooltip-text="Finger Extensors" class="tooltip-trigger" fill="url(#SVGID_finger_extensors_left)" d="M62.958,230.707c-2-8.375-3.625-19.5-3.625-19.5s-7.375-7-8.75-10.875
 c-0.285,2.711-0.484,5.425-0.987,8.108c-1.367,7.295-2.638,14.602-3.982,21.903c-0.391,2.12-0.802,4.237-1.24,6.348
 c-0.4,1.929-0.824,3.854-1.271,5.772c-0.27,1.158-0.55,2.313-0.845,3.465c-0.247,0.966-0.891,2.278-0.882,3.265
 c0.065,7.007,0.091,12.53-0.043,13.512c-0.266,1.949-0.531,6.023-0.797,8.593c1.354,0.957,4.609,2.206,12.422,2.282h2l4.209-0.094
 c0.401-2.794,2.2-14.88,4.291-22.031c0.003-0.009,0.006-0.019,0.009-0.028C63.81,247.851,64.589,237.535,62.958,230.707z"></path>
<path data-tooltip-text="Finger Extensors" class="tooltip-trigger" fill="url(#SVGID_finger_extensors_right)" d="M185.052,230.707c2-8.375,3.625-19.5,3.625-19.5s7.375-7,8.75-10.875
 c0.285,2.711,0.484,5.425,0.987,8.108c1.367,7.295,2.638,14.602,3.982,21.903c0.391,2.12,0.802,4.237,1.24,6.348
 c0.4,1.929,0.824,3.854,1.271,5.772c0.27,1.158,0.55,2.313,0.845,3.465c0.247,0.966,0.891,2.278,0.882,3.265
 c-0.065,7.007-0.091,12.53,0.043,13.512c0.266,1.949,0.531,6.023,0.797,8.593c-1.354,0.957-4.609,2.206-12.422,2.282h-2
 l-4.209-0.094c-0.401-2.794-2.2-14.88-4.291-22.031c-0.003-0.009-0.006-0.019-0.009-0.028
 C184.201,247.851,183.421,237.535,185.052,230.707z"></path>
</g>

<!-- Tensor Fasciae Latae (Left) -->
<linearGradient id="SVGID_back_8_" gradientUnits="userSpaceOnUse" x1="82.8105" y1="275.0508" x2="74.1936" y2="373.5432">
<stop offset="0" style="stop-color: rgb(153,128,164);"></stop>
<stop offset="1" style="stop-color: rgb(154,103,172);"></stop>
</linearGradient>

<!-- Tensor Fasciae Latae (Right) -->
<linearGradient id="SVGID_back_36_" gradientUnits="userSpaceOnUse" x1="561.1431" y1="275.0508" x2="552.5261" y2="373.5427" gradientTransform="matrix(-1 0 0 1 726.0303 0)">
<stop offset="0" style="stop-color: rgb(153,128,164);"></stop>
<stop offset="1" style="stop-color: rgb(154,103,172);"></stop>
</linearGradient>

<!-- Tensor Fasciae Latae -->
<g id="tensor_fasciae_latae" class="muscle">
<path data-tooltip-text="Tensor Fasciae Latae" class="tooltip-trigger" fill="url(#SVGID_back_8_)" d="M82.833,290.499c-5.5-6-6.333-16-6.333-16c-6.667,12.5-5,41.5-3.5,54.167s8,29.33,8.167,34.663
 c0.071,2.268,0.135,4.159-0.084,5.879c0.692,1.924,1.673,3.94,2.125,5.125c0.871-7.055-0.143-19.449-0.541-23.837
 c-0.5-5.5-0.751-13.663-1.084-22.163s2.125-20.25,2.125-20.25S84.092,291.872,82.833,290.499z"></path>
<path data-tooltip-text="Tensor Fasciae Latae" class="tooltip-trigger" fill="url(#SVGID_back_36_)" d="M164.864,290.499c5.5-6,6.333-16,6.333-16c6.667,12.5,5,41.5,3.5,54.167s-8,29.33-8.167,34.663
 c-0.071,2.268-0.135,4.159,0.084,5.879c-0.692,1.924-1.673,3.94-2.125,5.125c-0.871-7.055,0.143-19.449,0.541-23.837
 c0.5-5.5,0.751-13.663,1.084-22.163s-2.125-20.25-2.125-20.25S163.605,291.872,164.864,290.499z"></path>
</g>

<!-- Abductors (Left) -->
<linearGradient id="SVGID_back_35_" gradientUnits="userSpaceOnUse" x1="119.1519" y1="286.7734" x2="114.0889" y2="344.6432">
<stop offset="0" style="stop-color: rgb(73,79,117);"></stop>
<stop offset="1" style="stop-color: rgb(50,55,125);"></stop>
</linearGradient>

<!-- Abductors (Right) -->
<linearGradient id="SVGID_back_38_" gradientUnits="userSpaceOnUse" x1="597.3901" y1="286.7939" x2="592.3276" y2="344.6588" gradientTransform="matrix(-1 0 0 1 726.0303 0)">
<stop offset="0" style="stop-color: rgb(73,79,117);"></stop>
<stop offset="1" style="stop-color: rgb(50,55,125);"></stop>
</linearGradient>

<!-- Abductors -->
<g id="abductors" class="muscle">
<path data-tooltip-text="Abductors" class="tooltip-trigger" fill="url(#SVGID_back_35_)" d="M123.927,287.191c0,0,1.224,14.744,0.167,26.542c-1,11.166-4.917,28.333-5.167,31.333
 c0,0-0.136-21.228-2.125-30.75c-1.75-8.375-6.125-13.167-5.875-17C110.927,297.316,121.177,294.649,123.927,287.191z"></path>
<path data-tooltip-text="Abductors" class="tooltip-trigger" fill="url(#SVGID_back_38_)" d="M123.917,287.207c0,0-1.276,14.744-0.22,26.542c1,11.166,4.917,28.333,5.167,31.333
 c0,0,0.136-21.228,2.125-30.75c1.75-8.375,6.125-13.167,5.875-17C136.864,297.332,126.667,294.665,123.917,287.207z"></path>
</g>

<!-- Hamstrings (Left) -->
<linearGradient id="SVGID_back_17_" gradientUnits="userSpaceOnUse" x1="105.9561" y1="297.2065" x2="96.5825" y2="404.3461">
<stop offset="0" style="stop-color: rgb(171,104,149);"></stop>
<stop offset="1" style="stop-color: rgb(176,36,134);"></stop>
</linearGradient>

<!-- Hamstrings (Right) -->
<linearGradient id="SVGID_back_37_" gradientUnits="userSpaceOnUse" x1="584.2905" y1="297.2065" x2="574.917" y2="404.3461" gradientTransform="matrix(-1 0 0 1 726.0303 0)">
<stop offset="0" style="stop-color: rgb(171,104,149);"></stop>
<stop offset="1" style="stop-color: rgb(176,36,134);"></stop>
</linearGradient>

<g id="hamstrings" class="muscle">
<path data-tooltip-text="Hamstrings" class="tooltip-trigger" fill="url(#SVGID_back_17_)" d="M118.333,372.957c0,0,0.375-13.25,0.25-20.25s-1.744-21.257-2-26.125
 c-0.25-4.75-0.828-7.527-2.125-12.5c-0.75-2.875-2.25-6.375-4.375-10.375c-1.209-2.276-1.909-6.24-1.28-6.251
 c0,0-0.038,0-0.095,0.001c-7.159,0.114-16.851-0.613-21.042,6.374c-5.5,9.167-4.666,32.832-3.999,37.998s1.5,25.167,1.333,32.667
 c-0.063,2.842-0.462,4.604-0.932,5.699c0.404,2.808,0.86,6.436,0.765,7.971C84.667,390.832,86,400.332,86,400.332
 s0.286,0.674,0.353,2.016c3.397-8.138,8.229-19.585,9.987-25.511c0.657-1.382,2.451-4.867,3.806-4.817
 c1.684,0.063,3.43,4.604,3.81,5.431c0.398,1.192,0.78,2.264,1.128,3.132c2.094,5.233,9.092,20.627,11.314,25.498
 c0.748-2.869,1.262-10.146,1.602-17.404C118.208,377.082,117.958,383.707,118.333,372.957z"></path>
<path data-tooltip-text="Hamstrings" class="tooltip-trigger" fill="url(#SVGID_back_37_)" d="M129.364,372.957c0,0-0.375-13.25-0.25-20.25s1.744-21.257,2-26.125
 c0.25-4.75,0.828-7.527,2.125-12.5c0.75-2.875,2.25-6.375,4.375-10.375c1.209-2.276,1.909-6.24,1.28-6.251c0,0,0.038,0,0.095,0.001
 c7.159,0.114,16.851-0.613,21.042,6.374c5.5,9.167,4.666,32.832,3.999,37.998s-1.5,25.167-1.333,32.667
 c0.063,2.842,0.462,4.604,0.932,5.699c-0.404,2.808-0.86,6.436-0.765,7.971c0.166,2.667-1.167,12.167-1.167,12.167
 s-0.286,0.674-0.353,2.016c-3.397-8.138-8.229-19.585-9.987-25.511c-0.657-1.382-2.451-4.867-3.806-4.817
 c-1.684,0.063-3.43,4.604-3.81,5.431c-0.398,1.192-0.78,2.264-1.128,3.132c-2.094,5.233-9.092,20.627-11.314,25.498
 c-0.748-2.869-1.262-10.146-1.602-17.404C129.489,377.082,129.739,383.707,129.364,372.957z"></path>
</g>

<!-- Gastrocnemius (Left) -->
<linearGradient id="SVGID_back_9_" gradientUnits="userSpaceOnUse" x1="101.6567" y1="384.2217" x2="90.2812" y2="514.2444">
<stop offset="0" style="stop-color: rgb(129,109,152);"></stop>
<stop offset="1" style="stop-color: rgb(116,80,154);"></stop>
</linearGradient>

<linearGradient id="SVGID_back_10_" gradientUnits="userSpaceOnUse" x1="116.8521" y1="391.749" x2="108.2598" y2="489.9592">
<stop offset="0" style="stop-color: rgb(129,109,152);"></stop>
<stop offset="1" style="stop-color: rgb(116,80,154);"></stop>
</linearGradient>

<!-- Gastrocnemius (Right) -->
<linearGradient id="SVGID_back_23_" gradientUnits="userSpaceOnUse" x1="548.3237" y1="384.2207" x2="536.9481" y2="514.2443" gradientTransform="matrix(-1 0 0 1 694.6768 0)">
<stop offset="0" style="stop-color: rgb(129,109,152);"></stop>
<stop offset="1" style="stop-color: rgb(116,80,154);"></stop>
</linearGradient>

<linearGradient id="SVGID_back_24_" gradientUnits="userSpaceOnUse" x1="563.5181" y1="391.749" x2="554.9258" y2="489.9586" gradientTransform="matrix(-1 0 0 1 694.6768 0)">
<stop offset="0" style="stop-color: rgb(129,109,152);"></stop>
<stop offset="1" style="stop-color: rgb(116,80,154);"></stop>
</linearGradient>

<g id="gastrocnemius" class="muscle">
<path data-tooltip-text="Gastrocnemius" class="tooltip-trigger" fill="url(#SVGID_back_9_)" d="M106.167,424.504c0-1.5-2.333-30.834-2.333-30.834s-7-11.333-8.5-9.833c0,0-3.667,11.657-9,19.995
 c-0.167,2.333-0.333,29.499,0.5,40.166c0.088,1.126,0.266,2.418,0.507,3.819c2.096,5.151,5.185,11.48,7.993,12.353
 c4.833,1.5,8,0.5,11-1.833S110,448.336,109.5,444.67S106.167,426.004,106.167,424.504z"></path>
<path data-tooltip-text="Gastrocnemius" class="tooltip-trigger" fill="url(#SVGID_back_23_)" d="M141.844,424.504c0-1.5,2.333-30.834,2.333-30.834s7-11.333,8.5-9.833c0,0,3.667,11.657,9,19.995
 c0.167,2.333,0.333,29.499-0.5,40.166c-0.088,1.126-0.266,2.418-0.507,3.819c-2.096,5.151-5.185,11.48-7.993,12.353
 c-4.833,1.5-8,0.5-11-1.833s-3.667-10.001-3.167-13.667S141.844,426.004,141.844,424.504z"></path>
<path data-tooltip-text="Gastrocnemius" class="tooltip-trigger" fill="url(#SVGID_back_10_)" d="M121.667,463.17c0.094,0.016,0.178,0.026,0.269,0.04c0.372-6.063,1.648-19.378,1.648-19.378
 c0-13.48-4.838-29.959-6.608-35.541c-0.42-0.741-6.312-11.186-8.642-17.287l-3,2.833c0,0,1.834,29.499,2.167,30.833
 s3.166,22.166,3.166,23S114.5,462.003,121.667,463.17z"></path>
<path data-tooltip-text="Gastrocnemius" class="tooltip-trigger" fill="url(#SVGID_back_24_)" d="M126.344,463.17c-0.094,0.016-0.178,0.026-0.269,0.04c-0.372-6.063-1.648-19.378-1.648-19.378
 c0-13.48,4.838-29.959,6.608-35.541c0.42-0.741,6.312-11.186,8.642-17.287l3,2.833c0,0-1.834,29.499-2.167,30.833
 s-3.166,22.166-3.166,23S133.511,462.003,126.344,463.17z"></path>
</g>

<!-- Soleus (Left) -->
<linearGradient id="SVGID_back_11_" gradientUnits="userSpaceOnUse" x1="102.4219" y1="454.7246" x2="97.9611" y2="505.712">
<stop offset="0" style="stop-color: rgb(207,116,69);"></stop>
<stop offset="1" style="stop-color: rgb(215,88,19);"></stop>
</linearGradient>

<linearGradient id="SVGID_back_12_" gradientUnits="userSpaceOnUse" x1="102.5391" y1="466.1748" x2="98.3828" y2="513.6808">
<stop offset="0" style="stop-color: rgb(207,116,69);"></stop>
<stop offset="1" style="stop-color: rgb(215,88,19);"></stop>
</linearGradient>

<!-- Soleus (Right) -->
<linearGradient id="SVGID_back_30_" gradientUnits="userSpaceOnUse" x1="585.1714" y1="455.4746" x2="580.7106" y2="506.4615" gradientTransform="matrix(-1 0 0 1 730.4404 0)">
<stop offset="0" style="stop-color: rgb(207,116,69);"></stop>
<stop offset="1" style="stop-color: rgb(215,88,19);"></stop>
</linearGradient>

<linearGradient id="SVGID_back_31_" gradientUnits="userSpaceOnUse" x1="585.2896" y1="466.9238" x2="581.1333" y2="514.4299" gradientTransform="matrix(-1 0 0 1 730.4404 0)">
<stop offset="0" style="stop-color: rgb(207,116,69);"></stop>
<stop offset="1" style="stop-color: rgb(215,88,19);"></stop>
</linearGradient>

<!-- Soleus -->
<g id="soleus" class="muscle">
<path data-tooltip-text="Soleus" class="tooltip-trigger" fill="url(#SVGID_back_11_)" d="M111.021,501.629c-0.175-0.698-0.378-1.533-0.526-2.214c-0.452-2.067-0.912-4.132-1.393-6.191
 c-0.85-3.65-1.757-7.287-2.783-10.892c-1.218-4.282-2.552-8.585-4.378-12.653c-0.417-0.929-0.903-1.813-1.357-2.722
 c-1.449-2.897-4.317-4.239-6.673-6.228c-1.186-1.001-2.174-2.204-3.078-3.459c-0.735-1.021-2.022-2.521-2.313-3.762
 c0.908,3.876,2.072,8.128,3.262,12.229c1.01,0.874,1.963,1.718,2.678,2.469c2.5,2.625,7.625,14.75,8.75,17.375
 c0.397,0.927,0.746,1.876,1.104,2.817c0.597,1.57,1.185,3.143,1.77,4.717c0.667,1.794,1.331,3.59,1.993,5.386
 c0.591,1.604,1.18,3.209,1.769,4.814c0.377,1.029,0.758,2.057,1.13,3.087c0.298,0.824,1.152,0.596,0.902-0.571
 C111.583,504.254,111.396,503.129,111.021,501.629z"></path>
<path data-tooltip-text="Soleus" class="tooltip-trigger" fill="url(#SVGID_back_30_)" d="M136.669,502.379c0.175-0.698,0.378-1.533,0.526-2.214c0.452-2.067,0.912-4.132,1.393-6.191
 c0.85-3.65,1.757-7.287,2.783-10.892c1.218-4.282,2.552-8.585,4.378-12.653c0.417-0.929,0.903-1.813,1.357-2.722
 c1.449-2.897,4.317-4.239,6.673-6.228c1.186-1.001,2.174-2.204,3.078-3.459c0.735-1.021,2.022-2.521,2.313-3.762
 c-0.908,3.876-2.072,8.128-3.262,12.229c-1.01,0.874-1.963,1.718-2.678,2.469c-2.5,2.625-7.625,14.75-8.75,17.375
 c-0.397,0.927-0.746,1.876-1.104,2.817c-0.597,1.57-1.185,3.143-1.77,4.717c-0.667,1.794-1.331,3.59-1.993,5.386
 c-0.591,1.604-1.18,3.209-1.769,4.814c-0.377,1.029-0.758,2.057-1.13,3.087c-0.298,0.824-1.152,0.596-0.902-0.571
 C136.107,505.004,136.294,503.879,136.669,502.379z"></path>
<path data-tooltip-text="Soleus" class="tooltip-trigger" fill="url(#SVGID_back_12_)" d="M103.958,493.207c-0.452-2.41-1.13-6.538-1.625-9.663c-1.896-4.389-5.793-13.15-7.875-15.337
 c-0.715-0.751-1.668-1.595-2.678-2.469c-0.05-0.172-0.099-0.348-0.15-0.519c2.477,8.583,5.093,16.584,5.703,19.112
 c0.224,0.928,0.577,2.829,0.999,5.308c0.866,1.886,1.624,3.87,2.001,5.317c1.32,5.062,3.723,10.046,5.94,14.759
 c0.711,1.509,1.469,2.994,2.239,4.473c0.841,1.039,0.976,0.004,0.695-1.231c-0.593-2.614-1.505-5.445-2.375-8.083
 c-0.906-2.748-1.58-5.476-2.184-8.299C104.411,495.455,104.169,494.334,103.958,493.207z"></path>
<path data-tooltip-text="Soleus" class="tooltip-trigger" fill="url(#SVGID_back_31_)" d="M143.732,493.957c0.452-2.41,1.13-6.538,1.625-9.663c1.896-4.389,5.793-13.15,7.875-15.337
 c0.715-0.751,1.668-1.595,2.678-2.469c0.05-0.172,0.099-0.348,0.15-0.519c-2.477,8.583-5.093,16.584-5.703,19.112
 c-0.224,0.928-0.577,2.829-0.999,5.308c-0.866,1.886-1.624,3.87-2.001,5.317c-1.32,5.062-3.723,10.046-5.94,14.759
 c-0.711,1.509-1.469,2.994-2.239,4.473c-0.841,1.039-0.976,0.004-0.695-1.231c0.593-2.614,1.505-5.445,2.375-8.083
 c0.906-2.748,1.58-5.476,2.184-8.299C143.28,496.205,143.521,495.084,143.732,493.957z"></path>
</g>

<g id="tooltip" visibility="hidden">
<rect x="2" y="2" width="80" height="24" fill="black" opacity="0.4" rx="2" ry="2"/>
<rect width="80" height="24" fill="white" rx="2" ry="2"/>
<polygon points="7,0 12,-10 17,0" fill="black" opacity="0.4"></polygon>
<polygon points="5,0 10,-10 15,0" fill="white"></polygon>
<text x="4" y="6">Tooltip</text>
</g>

<script type="text/ecmascript"><![CDATA[
(function () {
  var svg = document.querySelector('svg');
  var tooltip = svg.getElementById('tooltip');
  var tooltipText = tooltip.getElementsByTagName('text')[0];
  var tooltipRects = tooltip.getElementsByTagName('rect');
  var tooltipPolygons = tooltip.getElementsByTagName('polygon');
  var triggers = svg.getElementsByClassName('tooltip-trigger');

  for (var i = 0; i < triggers.length; i++) {
    triggers[i].addEventListener('mousemove', showTooltip);
    triggers[i].addEventListener('mouseout', hideTooltip);
  }

  function showTooltip(evt) {
    var CTM = svg.getScreenCTM();
    var x = (evt.clientX - CTM.e + 6) / CTM.a;
    var y = (evt.clientY - CTM.f + 20) / CTM.d;
    
    tooltipText.firstChild.data = evt.target.getAttributeNS(null, "data-tooltip-text");
    var length = tooltipText.getComputedTextLength();
    var tooltipWidth = length + 8;
    
    for (var i = 0; i < tooltipRects.length; i++) {
      tooltipRects[i].setAttributeNS(null, "width", tooltipWidth);
    }
    
    // Get SVG viewBox dimensions
    var viewBox = svg.viewBox.baseVal;
    var svgWidth = viewBox.width;
    
    // Check if tooltip would overflow on the right
    if (x + tooltipWidth > svgWidth) {
      x = x - tooltipWidth - 12; // Flip to left side
      // Move arrow to right side
      tooltipPolygons[0].setAttributeNS(null, "points", (tooltipWidth - 7) + ",0 " + (tooltipWidth - 12) + ",-10 " + (tooltipWidth - 17) + ",0");
      tooltipPolygons[1].setAttributeNS(null, "points", (tooltipWidth - 5) + ",0 " + (tooltipWidth - 10) + ",-10 " + (tooltipWidth - 15) + ",0");
    } else {
      // Arrow on left side (default)
      tooltipPolygons[0].setAttributeNS(null, "points", "7,0 12,-10 17,0");
      tooltipPolygons[1].setAttributeNS(null, "points", "5,0 10,-10 15,0");
    }
    
    tooltip.setAttributeNS(null, "transform", "translate(" + x + " " + y + ")");
    tooltip.setAttributeNS(null, "visibility", "visible");
  }

  function hideTooltip(evt) {
    tooltip.setAttributeNS(null, "visibility", "hidden");
  }
})()
]]></script>

</svg>
