<svg version="1.1" xmlns="http://www.w3.org/2000/svg" x="0px" y="0px" width="171.852px" height="546.3px" viewBox="0 0 171.852 546.3" enable-background="new 0 0 171.852 546.3" overflow="visible">
<style type="text/css">
.muscle {
    cursor: pointer;
    box-shadow: -10px 10px 0 0 rgba(0, 0, 0, .1);
}

.muscle:hover,
.muscle.active,
.muscle.focus{
    stroke: red;
    stroke-width: 3;
    fill: #c0133c;
    fill-opacity: 0.5;
}

#tooltip {
    dominant-baseline: hanging;
}
</style>

<linearGradient id="SVGID_body_outline_front" gradientUnits="userSpaceOnUse" x1="15.3335" y1="274.7173" x2="232.4595" y2="274.7173">
<stop offset="0" style="stop-color: rgb(66, 186, 191);"></stop>
<stop offset="1" style="stop-color: rgb(149, 206, 189);"></stop>
</linearGradient>

<linearGradient id="SVGID_2_" gradientUnits="userSpaceOnUse" x1="58.5225" y1="114.1377" x2="58.5225" y2="157.7754">
<stop offset="0" style="stop-color: rgb(66, 186, 191);"></stop>
<stop offset="1" style="stop-color: rgb(149, 206, 189);"></stop>
</linearGradient>

<linearGradient id="SVGID_35_" gradientUnits="userSpaceOnUse" x1="37.21" y1="114.1382" x2="37.21" y2="157.7754" gradientTransform="matrix(-1 0 0 1 150.9072 0)">
<stop offset="0" style="stop-color: rgb(66, 186, 191);"></stop>
<stop offset="1" style="stop-color: rgb(149, 206, 189);"></stop>
</linearGradient>

<linearGradient id="SVGID_3_" gradientUnits="userSpaceOnUse" x1="62.7241" y1="90.4087" x2="62.7241" y2="131.9106">
<stop offset="0" style="stop-color: rgb(66, 186, 191);"></stop>
<stop offset="1" style="stop-color: rgb(149, 206, 189);"></stop>
</linearGradient>

<linearGradient id="SVGID_36_" gradientUnits="userSpaceOnUse" x1="41.4116" y1="90.4092" x2="41.4116" y2="131.9111" gradientTransform="matrix(-1 0 0 1 150.9072 0)">
<stop offset="0" style="stop-color: rgb(66, 186, 191);"></stop>
<stop offset="1" style="stop-color: rgb(149, 206, 189);"></stop>
</linearGradient>

<linearGradient id="SVGID_7_" gradientUnits="userSpaceOnUse" x1="75.9321" y1="209.3965" x2="75.9321" y2="266.5371">
<stop offset="0" style="stop-color: rgb(66, 186, 191);"></stop>
<stop offset="1" style="stop-color: rgb(149, 206, 189);"></stop>
</linearGradient>

<linearGradient id="SVGID_40_" gradientUnits="userSpaceOnUse" x1="54.6196" y1="209.397" x2="54.6196" y2="266.5376" gradientTransform="matrix(-1 0 0 1 150.9072 0)">
<stop offset="0" style="stop-color: rgb(66, 186, 191);"></stop>
<stop offset="1" style="stop-color: rgb(149, 206, 189);"></stop>
</linearGradient>

<linearGradient id="SVGID_17_" gradientUnits="userSpaceOnUse" x1="57.1587" y1="253.5166" x2="57.1587" y2="381.4932">
<stop offset="0" style="stop-color: rgb(66, 186, 191);"></stop>
<stop offset="1" style="stop-color: rgb(149, 206, 189);"></stop>
</linearGradient>

<linearGradient id="SVGID_50_" gradientUnits="userSpaceOnUse" x1="35.8462" y1="253.5166" x2="35.8462" y2="381.4922" gradientTransform="matrix(-1 0 0 1 150.9072 0)">
<stop offset="0" style="stop-color: rgb(66, 186, 191);"></stop>
<stop offset="1" style="stop-color: rgb(149, 206, 189);"></stop>
</linearGradient>

<linearGradient id="SVGID_22_" gradientUnits="userSpaceOnUse" x1="55.3174" y1="446.9419" x2="80.0713" y2="446.9419" gradientTransform="matrix(0.9999 0.0024 0.0024 0.921 -1.5577 38.9259)">
<stop offset="0" style="stop-color: rgb(66, 186, 191);"></stop>
<stop offset="1" style="stop-color: rgb(149, 206, 189);"></stop>
</linearGradient>

<linearGradient id="SVGID_29_" gradientUnits="userSpaceOnUse" x1="34.1475" y1="446.9966" x2="58.9023" y2="446.9966" gradientTransform="matrix(-0.9999 0.0024 -0.0024 0.921 152.4649 38.9259)">
<stop offset="0" style="stop-color: rgb(66, 186, 191);"></stop>
<stop offset="1" style="stop-color: rgb(149, 206, 189);"></stop>
</linearGradient>

<linearGradient id="SVGID_24_" gradientUnits="userSpaceOnUse" x1="71.1313" y1="445.0464" x2="84.7314" y2="445.0464">
<stop offset="0" style="stop-color: rgb(66, 186, 191);"></stop>
<stop offset="1" style="stop-color: rgb(149, 206, 189);"></stop>
</linearGradient>

<linearGradient id="SVGID_31_" gradientUnits="userSpaceOnUse" x1="49.9644" y1="445.0464" x2="63.5645" y2="445.0464" gradientTransform="matrix(-1 0 0 1 150.9072 0)">
<stop offset="0" style="stop-color: rgb(66, 186, 191);"></stop>
<stop offset="1" style="stop-color: rgb(149, 206, 189);"></stop>
</linearGradient>

<linearGradient id="SVGID_4_" gradientUnits="userSpaceOnUse" x1="73.1563" y1="143.9507" x2="73.1563" y2="177.583">
<stop offset="0" style="stop-color: rgb(66, 186, 191);"></stop>
<stop offset="1" style="stop-color: rgb(149, 206, 189);"></stop>
</linearGradient>

<linearGradient id="SVGID_37_" gradientUnits="userSpaceOnUse" x1="51.8438" y1="143.9512" x2="51.8438" y2="177.5835" gradientTransform="matrix(-1 0 0 1 150.9072 0)">
<stop offset="0" style="stop-color: rgb(66, 186, 191);"></stop>
<stop offset="1" style="stop-color: rgb(149, 206, 189);"></stop>
</linearGradient>

<linearGradient id="SVGID_9_" gradientUnits="userSpaceOnUse" x1="42.3745" y1="226.4917" x2="42.3745" y2="280.0161">
<stop offset="0" style="stop-color: rgb(66, 186, 191);"></stop>
<stop offset="1" style="stop-color: rgb(149, 206, 189);"></stop>
</linearGradient>

<linearGradient id="SVGID_42_" gradientUnits="userSpaceOnUse" x1="21.062" y1="226.4922" x2="21.062" y2="280.0166" gradientTransform="matrix(-1 0 0 1 150.9072 0)">
<stop offset="0" style="stop-color: rgb(66, 186, 191);"></stop>
<stop offset="1" style="stop-color: rgb(149, 206, 189);"></stop>
</linearGradient>

<g id="Body_female_front">
<path fill="#FFFFFF" stroke="url(#SVGID_body_outline_front)" stroke-width="2" stroke-miterlimit="10" d="M86.352,278.795c0.402,0.394,0.797,0.877,1.103,1.489c1,2,1.166,32,1.5,34.166
 c0.333,2.166,0,43.168,0,50.002s0.666,28.998,0.832,30.498c0.167,1.5,0.334,9.334,0.334,10.168c0,0.832,0,9.666-0.5,11.832
 c-0.5,2.168-2.5,13.168-2.5,22.334s2.334,26.666,2.667,30.334c0.333,3.666,0.833,29.832,0.833,29.832s-0.166,4.334-0.5,6
 c-0.334,1.668-3,11.5-3,11.5s0.834,16.334,0.834,17c0,0.668-0.5,4-0.667,6.5s0.667,4.668,0.667,4.668s1,0.332,3,0.832
 s5.333,0.168,6.333,0c1-0.166,1-0.166,1-0.166c1.5,1.332,5-0.334,5-0.334c2,0.834,3.5-0.166,3.5-0.166
 c2.333,0.832,2.667-0.334,2.667-0.334l1.833-0.5c1-2.5-0.333-5.666-0.5-6.332s-3.167-7.668-4-9.334c-0.833-1.668-2-8.666-2-8.666
 s0.167-4.668,0.333-5.334c0.166-0.668,0.667-3.5,1-9.334c0.333-5.832,8.667-38.832,8.667-38.832
 c5.667-35.666,4.333-61.5,4.333-63.168c0-1.666-0.334-14.332-0.334-14.332s1.5-10.334,1.668-11
 c0.166-0.668,6.91-37.736,11.832-60.5c5.334-24.668,5.834-40.834,5.834-40.834c-0.667-19.833-5.333-41.333-5.333-41.333
 s-3.5-12.333-5-16.833s-6.833-15.167-7-17.333s0.667-6,1-9.167s3.5-16.333,4.667-20.333c1.166-4,3.666-18.333,3.666-18.333
 s2.5,13.333,3.667,17.667s1.833,17.667,1.833,17.667c-0.5,9,1.5,24.833,2.667,28.667s5.333,27,5.333,27.25l0.694,7.271
 c0.168,2.535,0.436,8.86,0.436,9.229c0,0.458-0.723,4.793-0.834,8.583c-0.083,2.833,0.45,3.872,0.71,6.958
 c0.089,1.057,0.333,3.333,0.333,3.333s0.417,3.917,0.417,4.417s0.25,8.042,0.25,8.042s0.125,8.292,0.542,11.458
 s1.833,2.75,1.833,2.75c0.792-0.084,1.292-0.375,1.5-0.666s0.292-3.209,0.292-3.668c0-0.457,0.291-7.042,0.291-7.208
 s0.167-6.167,0.167-6.833s0.333-0.708,0.333-0.708s0.292,3.708,0.292,4.083s0.125,4.25,0.125,4.917s0.458,6.333,0.458,6.708
 s0.167,4.541,0.375,6c0.208,1.457,1.709,1.416,1.709,1.416c2.584-0.666,2.041-4.5,2.083-4.916c0.042-0.418,0.125-4.584,0.083-5.334
 s-0.291-10.375-0.291-10.625s0-2.75,0-2.75s0.291,0.083,0.375,0.292s0.291,7.5,0.291,7.708s0.459,5.833,0.584,7.208
 s0.208,6.209,0.5,8s1.875,1.959,1.875,1.959c2.375-0.084,2.083-3.875,2.083-3.875s0.125-5.125,0.125-5.709
 s0.284-13.382,0.187-14.521c-0.125-1.458,0.313-1.562,0.313-1.562c0.499,0.771,0.499,3.021,0.499,3.021
 c0.313,5.438,0.384,5.078,0.583,7.771c0.125,1.688,0.563,5.562,0.729,7.229c0.166,1.666,0.938,2.771,1.396,3.146
 s1.083,0.207,1.083,0.207c2.291-0.209,1.958-4.291,1.708-5.916s-0.5-8-0.625-9.625s-0.313-9.688-0.313-9.688
 s0.137,2.694,0.479,4.854c0.238,1.498,0.639,2.583,0.896,2.979c1.375,2.125,3.313,0.313,3.313,0.313s-0.209-1.375-0.417-3.25
 c-0.16-1.442,0.36-4.041,0.667-5.958c0.321-2.009-0.188-3.625-0.563-4.625s-1.188-5.5-1.438-6.5s-1.25-2.125-1.25-2.125
 s-2.25-3-3.125-3.875s-2.705-3.256-3.041-4.542c-1.834-7.021-2.13-10.958-2.13-10.958c-0.75-3,0.25-47.25-1.25-54.75
 s-5-21.25-5-21.25c-2.5-12-5.25-45.75-5.25-45.75c-0.25-5.25,1.75-16.75-0.5-26.75s-7-13.75-9.25-15.5s-9-1.75-16.5-2.5
 c-2.246-0.225-4.46-0.615-6.533-1.146c-3.493-0.767-6.912-2.096-7.762-2.437c0.007-0.014,0.016-0.028,0.023-0.042
 c-0.868-0.335-2.042-0.965-2.866-1.417c-0.187-0.102-0.363-0.208-0.537-0.313c-0.133-0.092-0.252-0.182-0.347-0.27h-0.074
 c-2.759-1.832-3.738-4-3.738-4c-2.25-5.375-0.679-15.375-0.679-15.375c3.125-2.625,5.375-9.125,5.375-9.375s0.25-2.083,0.416-3.083
 c0.167-1,0.834-5.25,0.917-6.25s0.417-2.5,0.5-3s0.583-3.833,0.583-3.833s3.084-13.75-3.5-22.833
 c-6.021-8.307-16.414-9.155-18.149-9.239V0c-0.006,0-0.017,0.001-0.022,0.001C86.054,0.001,86.043,0,86.037,0v0.003
 c-0.03,0.001-0.074,0.004-0.111,0.007c-0.037-0.002-0.081-0.005-0.111-0.007V0c-0.006,0-0.017,0.001-0.023,0.001
 C85.785,0.001,85.774,0,85.769,0v0.003C84.033,0.087,73.64,0.935,67.619,9.242c-6.584,9.083-3.5,22.833-3.5,22.833
 s0.5,3.333,0.583,3.833s0.417,2,0.5,3s0.75,5.25,0.917,6.25c0.166,1,0.416,2.833,0.416,3.083s2.25,6.75,5.375,9.375
 c0,0,1.571,10-0.679,15.375c0,0-0.979,2.168-3.738,4h-0.074c-0.095,0.088-0.214,0.178-0.347,0.27
 c-0.174,0.106-0.351,0.211-0.537,0.313c-0.824,0.451-1.998,1.082-2.866,1.417c0.008,0.014,0.017,0.028,0.023,0.042
 c-0.85,0.341-4.269,1.67-7.762,2.437c-2.073,0.532-4.287,0.922-6.533,1.146c-7.5,0.75-14.25,0.75-16.5,2.5s-7,5.5-9.25,15.5
 s-0.25,21.5-0.5,26.75c0,0-2.75,33.75-5.25,45.75c0,0-3.5,13.75-5,21.25s-0.5,51.75-1.25,54.75c0,0-0.296,3.938-2.13,10.958
 c-0.336,1.286-2.166,3.667-3.041,4.542s-3.125,3.875-3.125,3.875s-1,1.125-1.25,2.125s-1.063,5.5-1.438,6.5
 s-0.884,2.616-0.563,4.625c0.307,1.918,0.827,4.517,0.667,5.958c-0.208,1.875-0.417,3.25-0.417,3.25s1.938,1.812,3.313-0.313
 c0.257-0.396,0.657-1.481,0.896-2.979c0.343-2.16,0.479-4.854,0.479-4.854s-0.188,8.063-0.313,9.688s-0.375,8-0.625,9.625
 s-0.583,5.707,1.708,5.916c0,0,0.625,0.168,1.083-0.207s1.23-1.48,1.396-3.146c0.166-1.668,0.604-5.541,0.729-7.229
 c0.199-2.693,0.271-2.333,0.583-7.771c0,0,0-2.25,0.499-3.021c0,0,0.438,0.104,0.313,1.562c-0.098,1.14,0.187,13.938,0.187,14.521
 s0.125,5.709,0.125,5.709s-0.292,3.791,2.083,3.875c0,0,1.583-0.168,1.875-1.959s0.375-6.625,0.5-8s0.584-7,0.584-7.208
 s0.207-7.5,0.291-7.708s0.375-0.292,0.375-0.292s0,2.5,0,2.75s-0.249,9.875-0.291,10.625s0.041,4.916,0.083,5.334
 c0.042,0.416-0.501,4.25,2.083,4.916c0,0,1.501,0.041,1.709-1.416c0.208-1.459,0.375-5.625,0.375-6s0.458-6.042,0.458-6.708
 s0.125-4.542,0.125-4.917s0.292-4.083,0.292-4.083s0.333,0.041,0.333,0.708s0.167,6.667,0.167,6.833s0.291,6.751,0.291,7.208
 c0,0.459,0.084,3.377,0.292,3.668s0.708,0.582,1.5,0.666c0,0,1.416,0.416,1.833-2.75s0.542-11.458,0.542-11.458
 s0.25-7.542,0.25-8.042s0.417-4.417,0.417-4.417s0.244-2.276,0.333-3.333c0.26-3.086,0.793-4.125,0.71-6.958
 c-0.111-3.791-0.834-8.125-0.834-8.583c0-0.37,0.268-6.694,0.436-9.229l0.694-7.271c0-0.25,4.166-23.417,5.333-27.25
 s3.167-19.667,2.667-28.667c0,0,0.666-13.334,1.833-17.667s3.667-17.667,3.667-17.667s2.5,14.333,3.666,18.333
 c1.167,4,4.334,17.166,4.667,20.333s1.167,7,1,9.167s-5.5,12.833-7,17.333s-5,16.833-5,16.833s-4.666,21.5-5.333,41.333
 c0,0,0.5,16.166,5.834,40.834c4.922,22.764,11.666,59.832,11.832,60.5c0.168,0.666,1.668,11,1.668,11s-0.334,12.666-0.334,14.332
 c0,1.668-1.334,27.502,4.333,63.168c0,0,8.334,33,8.667,38.832c0.333,5.834,0.834,8.666,1,9.334
 c0.166,0.666,0.333,5.334,0.333,5.334s-1.167,6.998-2,8.666c-0.833,1.666-3.833,8.668-4,9.334s-1.5,3.832-0.5,6.332l1.833,0.5
 c0,0,0.334,1.166,2.667,0.334c0,0,1.5,1,3.5,0.166c0,0,3.5,1.666,5,0.334c0,0,0,0,1,0.166c1,0.168,4.333,0.5,6.333,0
 s3-0.832,3-0.832s0.834-2.168,0.667-4.668s-0.667-5.832-0.667-6.5c0-0.666,0.834-17,0.834-17s-2.666-9.832-3-11.5
 c-0.334-1.666-0.5-6-0.5-6s0.5-26.166,0.833-29.832c0.333-3.668,2.667-21.168,2.667-30.334s-2-20.166-2.5-22.334
 c-0.5-2.166-0.5-11-0.5-11.832c0-0.834,0.167-8.668,0.334-10.168c0.173-1.56,0.832-23.69,0.832-30.498
 c0-6.834-0.333-47.836,0-50.002c0.334-2.166,0.5-32.166,1.5-34.166c0.306-0.612,0.7-1.095,1.103-1.489
 C85.5,278.795,86.021,278.65,86.352,278.795z"></path>
</g>

<!-- Breast (Left) -->
<linearGradient id="SVGID_2_wfront" gradientUnits="userSpaceOnUse" x1="58.5225" y1="114.1377" x2="58.5225" y2="157.7754">
<stop offset="0" style="stop-color: rgb(177,131,131);"></stop>
<stop offset="1" style="stop-color: rgb(183,117,118);"></stop>
</linearGradient>

<!-- Breast (Right) -->
<linearGradient id="SVGID_35_wfront" gradientUnits="userSpaceOnUse" x1="37.21" y1="114.1382" x2="37.21" y2="157.7754" gradientTransform="matrix(-1 0 0 1 150.9072 0)">
<stop offset="0" style="stop-color: rgb(177,131,131);"></stop>
<stop offset="1" style="stop-color: rgb(183,117,118);"></stop>
</linearGradient>

<g id="breasts" class="muscle">
<path data-tooltip-text="Breasts" class="tooltip-trigger" fill="url(#SVGID_2_wfront)" d="M42.532,152.857c-5.756-4.654-5.725-13.395-4.769-18.918c0.505-2.914,1.421-6.405,3.036-8.944
 c0.667-1.047,1.866-3.532,3.198-7.194c1.332-3.663,6.262-3.663,6.262-3.663l8.261,0.785c11.591,2.616,17.72,7.064,20.118,13.474
 c2.818,7.533,0.399,18.183-7.994,24.592C70.644,152.988,56.122,163.845,42.532,152.857z"></path>
<path data-tooltip-text="Breasts" class="tooltip-trigger" fill="url(#SVGID_35_wfront)" d="M129.688,152.857c5.756-4.654,5.725-13.395,4.769-18.918c-0.505-2.914-1.421-6.405-3.036-8.944
 c-0.667-1.047-1.866-3.532-3.198-7.194c-1.332-3.663-6.262-3.663-6.262-3.663l-8.261,0.785
 c-11.591,2.616-17.72,7.064-20.118,13.474c-2.818,7.533-0.399,18.183,7.994,24.592
 C101.576,152.988,116.098,163.845,129.688,152.857z"></path>
</g>

<!-- Trapezius (Left) -->
<linearGradient id="SVGID_trapezius_left" gradientUnits="userSpaceOnUse" x1="46.6704" y1="79.6226" x2="74.8921" y2="79.6226">
<stop offset="0" style="stop-color: rgb(124,67,89);"></stop>
<stop offset="1" style="stop-color: rgb(78,46,54);"></stop>
</linearGradient>

<!-- Trapezius (Right) -->
<linearGradient id="SVGID_trapezius_right" gradientUnits="userSpaceOnUse" x1="25.3579" y1="79.6226" x2="53.5796" y2="79.6226" gradientTransform="matrix(-1 0 0 1 150.9072 0)">
<stop offset="0" style="stop-color: rgb(124,67,89);"></stop>
<stop offset="1" style="stop-color: rgb(78,46,54);"></stop>
</linearGradient>

<g id="trapezius" class="muscle">
<path data-tooltip-text="Trapezius" class="tooltip-trigger" fill="url(#SVGID_trapezius_left)" d="M72.26,69.581c-0.188,1.158-0.465,2.253-0.862,3.203c0,0-0.979,2.168-3.738,4h-0.074
 c-0.095,0.088-0.214,0.178-0.347,0.27c-0.174,0.106-0.351,0.211-0.537,0.313c-0.824,0.451-1.998,1.082-2.866,1.417
 c0.008,0.014,0.017,0.028,0.023,0.042c-0.85,0.341-4.269,1.67-7.762,2.437c-2.073,0.532-4.287,0.922-6.533,1.146
 c-0.98,0.098-1.947,0.183-2.894,0.261c0.5-0.041,1.421,1.724,1.676,2.081c0.514,0.723,1.075,1.329,1.815,1.825
 c1.599,1.07,3.565,1.434,5.438,1.7c4.432,0.63,8.929,1.005,13.396,1.265c1.772,0.103,3.629,0.227,5.396-0.017
 c0.167-0.023,0.333-0.063,0.5-0.093L72.26,69.581z"></path>
<path data-tooltip-text="Trapezius" class="tooltip-trigger" fill="url(#SVGID_trapezius_right)" d="M99.959,69.581c0.188,1.158,0.465,2.253,0.862,3.203c0,0,0.979,2.168,3.738,4h0.074
 c0.095,0.088,0.214,0.178,0.347,0.27c0.174,0.106,0.351,0.211,0.537,0.313c0.824,0.451,1.998,1.082,2.866,1.417
 c-0.008,0.014-0.017,0.028-0.023,0.042c0.85,0.341,4.269,1.67,7.762,2.437c2.073,0.532,4.287,0.922,6.533,1.146
 c0.98,0.098,1.947,0.183,2.894,0.261c-0.5-0.041-1.421,1.724-1.676,2.081c-0.514,0.723-1.075,1.329-1.815,1.825
 c-1.599,1.07-3.565,1.434-5.438,1.7c-4.432,0.63-8.929,1.005-13.396,1.265c-1.772,0.103-3.629,0.227-5.396-0.017
 c-0.167-0.023-0.333-0.063-0.5-0.093L99.959,69.581z"></path>
</g>

<!-- Deltoid (Left) -->
<linearGradient id="SVGID_deltoid_left" gradientUnits="userSpaceOnUse" x1="35.5" y1="83.8237" x2="35.5" y2="132.4087">
<stop offset="0" style="stop-color: rgb(181,98,69);"></stop>
<stop offset="1" style="stop-color: rgb(183,82,44);"></stop>
</linearGradient>

<!-- Deltoid (Right) -->
<linearGradient id="SVGID_deltoid_right" gradientUnits="userSpaceOnUse" x1="14.1875" y1="83.8242" x2="14.1875" y2="132.4092" gradientTransform="matrix(-1 0 0 1 150.9072 0)">
<stop offset="0" style="stop-color: rgb(181,98,69);"></stop>
<stop offset="1" style="stop-color: rgb(183,82,44);"></stop>
</linearGradient>

<g id="deltoid" class="muscle">
<path data-tooltip-text="Deltoid" class="tooltip-trigger" fill="url(#SVGID_deltoid_left)" d="M23.458,122.846l0.026-0.054c-0.334-5.946-1.15-14.611,0.599-22.383c2.25-10,7-13.75,9.25-15.5
 c0.61-0.475,1.561-0.818,2.758-1.085c2.176,0.743,4.328,1.607,5.409,2.418c2.667,2,6.5,3.333,6.5,3.333s-8.167,6.333-8.333,16.5
 c0,0-8.804,10.655-9.771,13.146c-1.562,4.021-2.895,8.521-3.062,13.188c0,0-0.651-0.68-2.327-5.807
 C24.506,126.602,23.811,124.346,23.458,122.846z"></path>
<path data-tooltip-text="Deltoid" class="tooltip-trigger" fill="url(#SVGID_deltoid_right)" d="M148.762,122.846l-0.026-0.054c0.334-5.946,1.15-14.611-0.599-22.383c-2.25-10-7-13.75-9.25-15.5
 c-0.61-0.475-1.561-0.818-2.758-1.085c-2.176,0.743-4.328,1.607-5.409,2.418c-2.667,2-6.5,3.333-6.5,3.333s8.167,6.333,8.333,16.5
 c0,0,8.804,10.655,9.771,13.146c1.562,4.021,2.895,8.521,3.062,13.188c0,0,0.651-0.68,2.327-5.807
 C147.713,126.602,148.409,124.346,148.762,122.846z"></path>
</g>

<!-- Pectoralis Major (Left) -->
<linearGradient id="SVGID_3_wfront" gradientUnits="userSpaceOnUse" x1="62.7241" y1="90.4087" x2="62.7241" y2="131.9106">
<stop offset="0" style="stop-color: rgb(177,131,131);"></stop>
<stop offset="1" style="stop-color: rgb(183,117,118);"></stop>
</linearGradient>

<!-- Pectoralis Major (Right) -->
<linearGradient id="SVGID_36_wfront" gradientUnits="userSpaceOnUse" x1="41.4116" y1="90.4092" x2="41.4116" y2="131.9111" gradientTransform="matrix(-1 0 0 1 150.9072 0)">
<stop offset="0" style="stop-color: rgb(177,131,131);"></stop>
<stop offset="1" style="stop-color: rgb(183,117,118);"></stop>
</linearGradient>

<g id="pectoralis_major" class="muscle">
<path data-tooltip-text="Pectoralis Major" class="tooltip-trigger" fill="url(#SVGID_3_wfront)" d="M83.301,109.752c-1.332-3.986-4.93-6.096-5.996-7.503c-1.065-1.407-1.731-8.44,2.665-8.792
 c0,0-5.729-1.29-8.793-0.938c-3.064,0.352-15.855-0.704-21.451-2.11c0,0-6.262,4.337-8.127,12.661c0,0,0,4.103,0.533,5.158
 c0.475,0.94,1.688,5.134,1.946,6.616c1.917-2.278,5.834-2.279,5.834-2.279l8.607,0.733c12.077,2.443,18.463,6.597,20.962,12.582
 c0.772,1.85,1.156,3.903,1.161,6.031c0.928-0.964,1.922-2.046,2.125-2.464C83.167,128.626,84.633,113.738,83.301,109.752z"></path>
<path data-tooltip-text="Pectoralis Major" class="tooltip-trigger" fill="url(#SVGID_36_wfront)" d="M88.918,109.752c1.332-3.986,4.93-6.096,5.996-7.503c1.065-1.407,1.731-8.44-2.665-8.792
 c0,0,5.729-1.29,8.793-0.938c3.064,0.352,15.855-0.704,21.451-2.11c0,0,6.262,4.337,8.127,12.661c0,0,0,4.103-0.533,5.158
 c-0.475,0.94-1.688,5.134-1.946,6.616c-1.917-2.278-5.834-2.279-5.834-2.279l-8.607,0.733
 c-12.077,2.443-18.463,6.597-20.962,12.582c-0.772,1.85-1.156,3.903-1.161,6.031c-0.928-0.964-1.922-2.046-2.125-2.464
 C89.052,128.626,87.586,113.738,88.918,109.752z"></path>
</g>

<!-- Triceps (Left) -->
<linearGradient id="SVGID_intercostal_left" gradientUnits="userSpaceOnUse" x1="22.4565" y1="125.4922" x2="22.4565" y2="176.0337">
<stop offset="0" style="stop-color: rgb(159,145,116);"></stop>
<stop offset="1" style="stop-color: rgb(161,144,90);"></stop>
</linearGradient>

<linearGradient id="SVGID_rotator_left" gradientUnits="userSpaceOnUse" x1="31.6265" y1="176.4888" x2="39.2031" y2="176.4888">
<stop offset="0" style="stop-color: rgb(159,145,116);"></stop>
<stop offset="1" style="stop-color: rgb(161,144,90);"></stop>
</linearGradient>


<!-- Triceps (Right) -->
<linearGradient id="SVGID_intercostal_right" gradientUnits="userSpaceOnUse" x1="1.144" y1="125.4927" x2="1.144" y2="176.0342" gradientTransform="matrix(-1 0 0 1 150.9072 0)">
<stop offset="0" style="stop-color: rgb(159,145,116);"></stop>
<stop offset="1" style="stop-color: rgb(161,144,90);"></stop>
</linearGradient>

<linearGradient id="SVGID_rotator_right" gradientUnits="userSpaceOnUse" x1="10.314" y1="176.4888" x2="17.8906" y2="176.4888" gradientTransform="matrix(-1 0 0 1 150.9072 0)">
<stop offset="0" style="stop-color: rgb(159,145,116);"></stop>
<stop offset="1" style="stop-color: rgb(161,144,90);"></stop>
</linearGradient>

<g id="triceps" class="muscle">
<path data-tooltip-text="Triceps" class="tooltip-trigger" fill="url(#SVGID_intercostal_left)" d="M19.948,177.581c0.75-15.875,6.385-43.922,6.385-43.922c-1.625-2.125-3.166-8.438-3.166-8.438
 l-0.292,4.917c-0.713,8.258-3.117,33.113-5.083,43.583C18.885,175.284,19.948,177.581,19.948,177.581z"></path>
<path data-tooltip-text="Triceps" class="tooltip-trigger" fill="url(#SVGID_intercostal_right)" d="M152.28,177.581c-0.75-15.875-6.385-43.922-6.385-43.922c1.625-2.125,3.166-8.438,3.166-8.438
 l0.292,4.917c0.713,8.258,3.117,33.113,5.083,43.583C153.343,175.284,152.28,177.581,152.28,177.581z"></path>
<path data-tooltip-text="Triceps" class="tooltip-trigger" fill="url(#SVGID_rotator_left)" d="M38.064,171.117c0.31-1.149,0.713-2.934,1.139-4.932c-2.711,4.973-6.194,11.288-7.078,12.543
 c-1.318,1.87-0.061,6.518,4.219,8.064C36.58,182.909,37.177,174.413,38.064,171.117z"></path>
<path data-tooltip-text="Triceps" class="tooltip-trigger" fill="url(#SVGID_rotator_right)" d="M134.155,171.117c-0.31-1.149-0.713-2.934-1.139-4.932c2.711,4.973,6.194,11.288,7.078,12.543
 c1.318,1.87,0.061,6.518-4.219,8.064C135.64,182.909,135.043,174.413,134.155,171.117z"></path>
</g>


<!-- Brachioradialis (Left) -->
<linearGradient id="SVGID_brachioradialis_left" gradientUnits="userSpaceOnUse" x1="17.6904" y1="174.873" x2="17.6904" y2="251.8218">
<stop offset="0" style="stop-color: rgb(66, 186, 191);"></stop>
<stop offset="1" style="stop-color: rgb(149, 206, 189);"></stop>
</linearGradient>

<!-- Brachioradialis (Right) -->
<linearGradient id="SVGID_brachioradialis_right" gradientUnits="userSpaceOnUse" x1="-3.6221" y1="174.8735" x2="-3.6221" y2="251.8223" gradientTransform="matrix(-1 0 0 1 150.9072 0)">
<stop offset="0" style="stop-color: rgb(66, 186, 191);"></stop>
<stop offset="1" style="stop-color: rgb(149, 206, 189);"></stop>
</linearGradient>

<g id="brachioradialis" class="muscle">
<path data-tooltip-text="Brachioradialis" class="tooltip-trigger" fill="url(#SVGID_brachioradialis_left)" d="M22.167,212.159c1.417-9.917,1.917-11.167,0.833-19.417c-1.333-6.25-3.417-13.958-3.417-13.958
 c-0.395-1.313-1.132-2.796-1.745-3.911c-1.019,4.066-3.352,13.52-4.505,19.286c-1.5,7.5-0.5,51.75-1.25,54.75
 c-0.217,0.868-0.266,1.842-0.287,2.883c0.078,0.012,0.162,0.02,0.244,0.03C13.93,243.859,19.333,221.492,22.167,212.159z"></path>
<path data-tooltip-text="Brachioradialis" class="tooltip-trigger" fill="url(#SVGID_brachioradialis_right)" d="M150.053,212.159c-1.417-9.917-1.917-11.167-0.833-19.417c1.333-6.25,3.417-13.958,3.417-13.958
 c0.395-1.313,1.132-2.796,1.745-3.911c1.019,4.066,3.352,13.52,4.505,19.286c1.5,7.5,0.5,51.75,1.25,54.75
 c0.217,0.868,0.266,1.842,0.287,2.883c-0.078,0.012-0.162,0.02-0.244,0.03C158.29,243.859,152.886,221.492,150.053,212.159z"></path>
</g>

<!-- Finger Flexors (Left) -->
<linearGradient id="SVGID_finger_flexors_left" gradientUnits="userSpaceOnUse" x1="13.0396" y1="220.8433" x2="36.25" y2="220.8433">
<stop offset="0" style="stop-color: rgb(177,200,135);"></stop>
<stop offset="1" style="stop-color: rgb(166,196,106);"></stop>
</linearGradient>

<!-- Finger Flexors (Right) -->
<linearGradient id="SVGID_finger_flexors_right" gradientUnits="userSpaceOnUse" x1="-8.2729" y1="220.8433" x2="14.9375" y2="220.8433" gradientTransform="matrix(-1 0 0 1 150.9072 0)">
<stop offset="0" style="stop-color: rgb(177,200,135);"></stop>
<stop offset="1" style="stop-color: rgb(166,196,106);"></stop>
</linearGradient>

<g id="tensor_fasciae_latae" class="muscle">
<path data-tooltip-text="Finger Flexors" class="tooltip-trigger" fill="url(#SVGID_finger_flexors_left)" d="M33.731,217.242c0.997-3.276,2.385-15.951,2.519-25c-2.408-0.932-4.667-2.75-4.667-2.75
 c-1.73,2.036-5.639,4.117-7.083,4.833c-0.311,0.154,0.051,5.472,0.034,6.149c-0.054,2.158-0.193,4.313-0.422,6.459
 c-0.429,4.027-1.177,8.135-2.577,11.948c0.014-0.117,0.034-0.232,0.062-0.346c-2.186,10.035-5.106,19.887-7.653,29.833
 c-0.301,1.177-0.603,2.354-0.905,3.53c0,0,9.236,1.147,14.059-1.074c0.242-0.08,0.481-0.174,0.721-0.267l0.579-6.066
 C28.398,244.242,32.564,221.076,33.731,217.242z"></path>
<path data-tooltip-text="Finger Flexors" class="tooltip-trigger" fill="url(#SVGID_finger_flexors_right)" d="M138.489,217.242c-0.997-3.276-2.385-15.951-2.519-25c2.408-0.932,4.667-2.75,4.667-2.75
 c1.73,2.036,5.639,4.117,7.083,4.833c0.311,0.154-0.051,5.472-0.034,6.149c0.054,2.158,0.193,4.313,0.422,6.459
 c0.429,4.027,1.177,8.135,2.577,11.948c-0.014-0.117-0.034-0.232-0.062-0.346c2.186,10.035,5.106,19.887,7.653,29.833
 c0.301,1.177,0.603,2.354,0.905,3.53c0,0-9.236,1.147-14.059-1.074c-0.242-0.08-0.481-0.174-0.721-0.267l-0.579-6.066
 C143.822,244.242,139.656,221.076,138.489,217.242z"></path>
</g>

<!-- Quadriceps (Left) -->
<linearGradient id="SVGID_17_wfront" gradientUnits="userSpaceOnUse" x1="57.1587" y1="253.5166" x2="57.1587" y2="381.4932">
<stop offset="0" style="stop-color: rgb(126,155,181);"></stop>
<stop offset="1" style="stop-color: rgb(101,142,185);"></stop>
</linearGradient>

<!-- Quadriceps (Right) -->
<linearGradient id="SVGID_50_wfront" gradientUnits="userSpaceOnUse" x1="35.8462" y1="253.5166" x2="35.8462" y2="381.4922" gradientTransform="matrix(-1 0 0 1 150.9072 0)">
<stop offset="0" style="stop-color: rgb(126,155,181);"></stop>
<stop offset="1" style="stop-color: rgb(101,142,185);"></stop>
</linearGradient>

<g id="quadriceps" class="muscle">
<path data-tooltip-text="Quadriceps" class="tooltip-trigger" fill="url(#SVGID_17_wfront)" d="M36.583,280.659c0,0,6.501-18.5,11.834-25.083c0,0,3.583-5.333,5.583,1.167
 c0.659,2.144,7.999,13.5,11.333,17s5.667,9,6.167,10.667s7.333,37.5,6.083,91.75c0,0-1.25,4.5-5.5,5.25s-7.5-3.75-7.75-4.75
 s-2.75-8.25-3.75-10s-6-10.75-6-10.75S40.583,300.909,36.583,280.659z"></path>
<path data-tooltip-text="Quadriceps" class="tooltip-trigger" fill="url(#SVGID_50_wfront)" d="M135.637,280.659c0,0-6.501-18.5-11.834-25.083c0,0-3.583-5.333-5.583,1.167
 c-0.659,2.144-7.999,13.5-11.333,17s-5.667,9-6.167,10.667s-7.333,37.5-6.083,91.75c0,0,1.25,4.5,5.5,5.25s7.5-3.75,7.75-4.75
 s2.75-8.25,3.75-10s6-10.75,6-10.75S131.637,300.909,135.637,280.659z"></path>
</g>

<!-- Tibialis Anterior (Left) -->
<linearGradient id="SVGID_22_wfront" gradientUnits="userSpaceOnUse" x1="55.3174" y1="446.9419" x2="80.0713" y2="446.9419" gradientTransform="matrix(0.9999 0.0024 0.0024 0.921 -1.5577 38.9259)">
<stop offset="0" style="stop-color: rgb(207,116,69);"></stop>
<stop offset="1" style="stop-color: rgb(215,88,19);"></stop>
</linearGradient>

<!-- Tibialis Anterior (Right) -->
<linearGradient id="SVGID_29_wfront" gradientUnits="userSpaceOnUse" x1="34.1475" y1="446.9966" x2="58.9023" y2="446.9966" gradientTransform="matrix(-0.9999 0.0024 -0.0024 0.921 152.4649 38.9259)">
<stop offset="0" style="stop-color: rgb(207,116,69);"></stop>
<stop offset="1" style="stop-color: rgb(215,88,19);"></stop>
</linearGradient>

<g id="tibialis_anterior" class="muscle">
<path data-tooltip-text="Tibialis Anterior" class="tooltip-trigger" fill="url(#SVGID_22_wfront)" d="M56.369,401.944c0,0,5.435,5.918,7.75,14.703c1.514,5.745,15.585,82.5,15.585,82.5
 s-1.528,2.622-5.356-6.388c-3.828-9.01-11.133-30.577-12.464-34.396c-1.332-3.822-5.112-14.387-5.944-26.64
 C55.107,419.471,53.468,402.078,56.369,401.944z"></path>
<path data-tooltip-text="Tibialis Anterior" class="tooltip-trigger" fill="url(#SVGID_29_wfront)" d="M115.705,401.944c0,0-5.435,5.918-7.75,14.703c-1.514,5.745-15.585,82.5-15.585,82.5
 s1.528,2.622,5.356-6.388c3.828-9.01,11.133-30.577,12.464-34.396c1.332-3.822,5.112-14.387,5.944-26.64
 C116.967,419.471,118.606,402.078,115.705,401.944z"></path>
</g>

<!-- Gastrocnemius (Left) -->
<linearGradient id="SVGID_24_wfront" gradientUnits="userSpaceOnUse" x1="71.1313" y1="445.0464" x2="84.7314" y2="445.0464">
<stop offset="0" style="stop-color: rgb(129,109,152);"></stop>
<stop offset="1" style="stop-color: rgb(116,80,154);"></stop>
</linearGradient>

<!-- Gastrocnemius (Right) -->
<linearGradient id="SVGID_31_wfront" gradientUnits="userSpaceOnUse" x1="49.9644" y1="445.0464" x2="63.5645" y2="445.0464" gradientTransform="matrix(-1 0 0 1 150.9072 0)">
<stop offset="0" style="stop-color: rgb(129,109,152);"></stop>
<stop offset="1" style="stop-color: rgb(116,80,154);"></stop>
</linearGradient>

<g id="gastrocnemius" class="muscle">
<path data-tooltip-text="Gastrocnemius" class="tooltip-trigger" fill="url(#SVGID_24_wfront)" d="M78.379,413.698c-2.752,3.156-6.145,6.495-7.1,14.131c-1.018,8.135,3.309,39.693,10.23,57.042
 c0,0,0.02-0.22,0.053-0.597c0.16-6.488,0.348-12.966,0.502-14.656c0.333-3.668,2.667-21.168,2.667-30.334s-2-20.166-2.5-22.334
 c-0.373-1.615-0.468-6.935-0.492-9.883c-0.144-0.617-0.292-1.232-0.446-1.845C81.294,405.222,81.131,410.541,78.379,413.698z"></path>
<path data-tooltip-text="Gastrocnemius" class="tooltip-trigger" fill="url(#SVGID_31_wfront)" d="M93.695,413.698c2.752,3.156,6.145,6.495,7.1,14.131c1.018,8.135-3.309,39.693-10.23,57.042
 c0,0-0.02-0.22-0.053-0.597c-0.16-6.488-0.348-12.966-0.502-14.656c-0.333-3.668-2.667-21.168-2.667-30.334s2-20.166,2.5-22.334
 c0.373-1.615,0.468-6.935,0.492-9.883c0.144-0.617,0.292-1.232,0.446-1.845C90.78,405.222,90.943,410.541,93.695,413.698z"></path>
</g>

<!-- Peroneus Longus Gradients -->
<linearGradient id="SVGID_peroneus_left" gradientUnits="userSpaceOnUse" x1="55" y1="450" x2="75" y2="510">
<stop offset="0" style="stop-color: rgb(150,106,132);"></stop>
<stop offset="1" style="stop-color: rgb(145,86,123);"></stop>
</linearGradient>
<linearGradient id="SVGID_peroneus_right" gradientUnits="userSpaceOnUse" x1="55" y1="450" x2="75" y2="510" gradientTransform="matrix(-1 0 0 1 150.9072 0)">
<stop offset="0" style="stop-color: rgb(150,106,132);"></stop>
<stop offset="1" style="stop-color: rgb(145,86,123);"></stop>
</linearGradient>

<g id="peroneus_longus" class="muscle">
<path data-tooltip-text="Peroneus Longus" class="tooltip-trigger" fill="url(#SVGID_peroneus_left)" d="M65,475c0,0,3.6,13,1.5,14.2c-2.1,1.2-2.8-2.9-4.1-7.4
 s-3.7-15.8-3.7-15.8s-5.3-22.5-5.7-26.2c-0.4-3.7-0.4-20.3,0.7-27.8c0,0-0.4,20.4,1.8,28.8C58.3,451.6,65,475,65,475z"></path>
<path data-tooltip-text="Peroneus Longus" class="tooltip-trigger" fill="url(#SVGID_peroneus_right)" d="M107.2,475c0,0-3.6,13-1.5,14.2c2.1,1.2,2.8-2.9,4.1-7.4
 s3.7-15.8,3.7-15.8s5.3-22.5,5.7-26.2c0.4-3.7,0.4-20.3-0.7-27.8c0,0,0.4,20.4-1.8,28.8C113.9,451.6,107.2,475,107.2,475z"></path>
</g>


<!-- External Oblique (Left) -->
<linearGradient id="SVGID_coraco_left" gradientUnits="userSpaceOnUse" x1="52.1108" y1="154.7422" x2="52.1108" y2="186.8076">
<stop offset="0" style="stop-color: rgb(124,111,80);"></stop>
<stop offset="1" style="stop-color: rgb(127,113,51);"></stop>
</linearGradient>

<linearGradient id="SVGID_pronator_left" gradientUnits="userSpaceOnUse" x1="56.1387" y1="180.8862" x2="56.1387" y2="210.1509">
<stop offset="0" style="stop-color: rgb(124,111,80);"></stop>
<stop offset="1" style="stop-color: rgb(127,113,51);"></stop>
</linearGradient>

<linearGradient id="SVGID_serratus_left" gradientUnits="userSpaceOnUse" x1="55.3921" y1="205.8149" x2="55.3921" y2="247.2388">
<stop offset="0" style="stop-color: rgb(124,111,80);"></stop>
<stop offset="1" style="stop-color: rgb(127,113,51);"></stop>
</linearGradient>

<!-- External Oblique (Right) -->
<linearGradient id="SVGID_coraco_right" gradientUnits="userSpaceOnUse" x1="30.7983" y1="154.7427" x2="30.7983" y2="186.8081" gradientTransform="matrix(-1 0 0 1 150.9072 0)">
<stop offset="0" style="stop-color: rgb(124,111,80);"></stop>
<stop offset="1" style="stop-color: rgb(127,113,51);"></stop>
</linearGradient>

<linearGradient id="SVGID_pronator_right" gradientUnits="userSpaceOnUse" x1="34.8262" y1="180.8867" x2="34.8262" y2="210.1514" gradientTransform="matrix(-1 0 0 1 150.9072 0)">
<stop offset="0" style="stop-color: rgb(124,111,80);"></stop>
<stop offset="1" style="stop-color: rgb(127,113,51);"></stop>
</linearGradient>

<linearGradient id="SVGID_serratus_right" gradientUnits="userSpaceOnUse" x1="34.0796" y1="205.8154" x2="34.0796" y2="247.2393" gradientTransform="matrix(-1 0 0 1 150.9072 0)">
<stop offset="0" style="stop-color: rgb(124,111,80);"></stop>
<stop offset="1" style="stop-color: rgb(127,113,51);"></stop>
</linearGradient>

<g id="external_oblique" class="muscle">
<path data-tooltip-text="External Oblique" class="tooltip-trigger" fill="url(#SVGID_coraco_left)" d="M55.958,186.54c0.032,0.038,0.093,0.078,0.141,0.116c1.818,0.628,4.35-0.893,4.35-0.893
 c2.75-4.159,1.219-10.237,0.844-11.432c-0.375-1.194-2.344-2.775-2.344-2.775c1.75-1.104,2.531-3.731,1.438-7.581
 c-1.273-4.481-7.803-5.074-7.803-5.074c-5-0.478-10.416-4.159-10.416-4.159s2.5,13.69,3.666,17.511
 c0.449,1.472,1.196,4.246,1.963,7.271c0.302,0.154,0.58,0.308,0.787,0.449C49.458,180.57,55.458,185.942,55.958,186.54z"></path>
<path data-tooltip-text="External Oblique" class="tooltip-trigger" fill="url(#SVGID_coraco_right)" d="M116.262,186.54c-0.032,0.038-0.093,0.078-0.141,0.116c-1.818,0.628-4.35-0.893-4.35-0.893
 c-2.75-4.159-1.219-10.237-0.844-11.432c0.375-1.194,2.344-2.775,2.344-2.775c-1.75-1.104-2.531-3.731-1.438-7.581
 c1.273-4.481,7.803-5.074,7.803-5.074c5-0.478,10.416-4.159,10.416-4.159s-2.5,13.69-3.666,17.511
 c-0.449,1.472-1.196,4.246-1.963,7.271c-0.302,0.154-0.58,0.308-0.787,0.449C122.762,180.57,116.762,185.942,116.262,186.54z"></path>
<path data-tooltip-text="External Oblique" class="tooltip-trigger" fill="url(#SVGID_pronator_left)" d="M50.606,203.911c2.611,1.866,4.687,4.887,7.797,5.966c3.719,1.29,5.976-2.195,5.638-5.661
 c-0.333-3.4-2.243-4.568-5.332-5.494c0.813-0.125,1.563-0.813,1.563-0.813c1.521-1.125,1.459-4.438,1.271-6.125
 c-0.275-2.478-4.531-3.47-6.327-4.602c-2.134-1.344-3.726-2.67-5.425-4.523c-0.352-0.383-1.127-1.475-1.589-1.772
 c1.086,4.575,2.114,9.292,2.296,11.022c0.334,3.167,1.167,7,1,9.167C51.459,201.596,51.117,202.614,50.606,203.911z"></path>
<path data-tooltip-text="External Oblique" class="tooltip-trigger" fill="url(#SVGID_pronator_right)" d="M121.613,203.911c-2.611,1.866-4.687,4.887-7.797,5.966c-3.719,1.29-5.976-2.195-5.638-5.661
 c0.333-3.4,2.243-4.568,5.332-5.494c-0.813-0.125-1.563-0.813-1.563-0.813c-1.521-1.125-1.459-4.438-1.271-6.125
 c0.275-2.478,4.531-3.47,6.327-4.602c2.134-1.344,3.726-2.67,5.425-4.523c0.352-0.383,1.127-1.475,1.589-1.772
 c-1.086,4.575-2.114,9.292-2.296,11.022c-0.334,3.167-1.167,7-1,9.167C120.76,201.596,121.103,202.614,121.613,203.911z"></path>
<path data-tooltip-text="External Oblique" class="tooltip-trigger" fill="url(#SVGID_serratus_left)" d="M64.75,228.534c-0.771-3.563-1.584-11.5-1.584-11.5s0.38-2.625-1.852-3.875
 c-0.427-0.239-1.533-0.25-2.788-1.25s-4.881-3.625-6.693-5c-0.443-0.335-1.626-0.902-2.08-1.094
 c-1.93,4.158-3.934,9.079-5.086,12.177c-0.538,1.445-1.256,4.115-2.05,6.508c1.449,0.326,5.083,2.344,6.382,3.072
 c3.348,1.875,6.363,4.571,9.667,8c2.65,2.75,9.5,11.667,9.5,11.667S65.867,233.687,64.75,228.534z"></path>
<path data-tooltip-text="External Oblique" class="tooltip-trigger" fill="url(#SVGID_serratus_right)" d="M107.469,228.534c0.771-3.563,1.584-11.5,1.584-11.5s-0.38-2.625,1.852-3.875
 c0.427-0.239,1.533-0.25,2.788-1.25s4.881-3.625,6.693-5c0.443-0.335,1.626-0.902,2.08-1.094c1.93,4.158,3.934,9.079,5.086,12.177
 c0.538,1.445,1.256,4.115,2.05,6.508c-1.449,0.326-5.083,2.344-6.382,3.072c-3.348,1.875-6.363,4.571-9.667,8
 c-2.65,2.75-9.5,11.667-9.5,11.667S106.353,233.687,107.469,228.534z"></path>
</g>





<!-- Abdominals (Left) -->
<linearGradient id="SVGID_4_wfront" gradientUnits="userSpaceOnUse" x1="73.1563" y1="143.9507" x2="73.1563" y2="177.583">
<stop offset="0" style="stop-color: rgb(94,100,75);"></stop>
<stop offset="1" style="stop-color: rgb(95,103,55);"></stop>
</linearGradient>

<linearGradient id="SVGID_7_wfront" gradientUnits="userSpaceOnUse" x1="75.9321" y1="209.3965" x2="75.9321" y2="266.5371">
<stop offset="0" style="stop-color: rgb(94,100,75);"></stop>
<stop offset="1" style="stop-color: rgb(95,103,55);"></stop>
</linearGradient>

<linearGradient id="SVGID_5_wfront" gradientUnits="userSpaceOnUse" x1="74.6465" y1="165.4087" x2="74.6465" y2="189.7866">
<stop offset="0" style="stop-color: rgb(94,100,75);"></stop>
<stop offset="1" style="stop-color: rgb(95,103,55);"></stop>
</linearGradient>

<linearGradient id="SVGID_6_wfront" gradientUnits="userSpaceOnUse" x1="75.1689" y1="187.4766" x2="75.1689" y2="208.4233">
<stop offset="0" style="stop-color: rgb(94,100,75);"></stop>
<stop offset="1" style="stop-color: rgb(95,103,55);"></stop>
</linearGradient>


<!-- Abdominals (Right) -->
<linearGradient id="SVGID_40_wfront" gradientUnits="userSpaceOnUse" x1="54.6196" y1="209.397" x2="54.6196" y2="266.5376" gradientTransform="matrix(-1 0 0 1 150.9072 0)">
<stop offset="0" style="stop-color: rgb(94,100,75);"></stop>
<stop offset="1" style="stop-color: rgb(95,103,55);"></stop>
</linearGradient>

<linearGradient id="SVGID_37_wfront" gradientUnits="userSpaceOnUse" x1="51.8438" y1="143.9512" x2="51.8438" y2="177.5835" gradientTransform="matrix(-1 0 0 1 150.9072 0)">
<stop offset="0" style="stop-color: rgb(94,100,75);"></stop>
<stop offset="1" style="stop-color: rgb(95,103,55);"></stop>
</linearGradient>

<linearGradient id="SVGID_38_wfront" gradientUnits="userSpaceOnUse" x1="53.4795" y1="165.4092" x2="53.4795" y2="189.7871" gradientTransform="matrix(-1 0 0 1 150.9072 0)">
<stop offset="0" style="stop-color: rgb(94,100,75);"></stop>
<stop offset="1" style="stop-color: rgb(95,103,55);"></stop>
</linearGradient>

<linearGradient id="SVGID_39_wfront" gradientUnits="userSpaceOnUse" x1="53.002" y1="187.4771" x2="53.002" y2="208.4238" gradientTransform="matrix(-1 0 0 1 150.9072 0)">
<stop offset="0" style="stop-color: rgb(94,100,75);"></stop>
<stop offset="1" style="stop-color: rgb(95,103,55);"></stop>
</linearGradient>

<g id="abdominals" class="muscle">
<path data-tooltip-text="Abdominals" class="tooltip-trigger" fill="url(#SVGID_4_wfront)" d="M80.503,143.951c0,0-3.598,12.224-18.253,14.737c0,0-0.933,1.713-0.666,2.97
 c0.266,1.257,1.998,15.651,1.998,15.651s1.199,0.686,2.132-0.114s11.191-11.31,14.389-13.252c3.198-1.942,4.53-4.112,4.53-5.026
 S85.965,145.208,80.503,143.951z"></path>
<path data-tooltip-text="Abdominals" class="tooltip-trigger" fill="url(#SVGID_37_wfront)" d="M91.716,143.951c0,0,3.598,12.224,18.253,14.737c0,0,0.933,1.713,0.666,2.97
 c-0.266,1.257-1.998,15.651-1.998,15.651s-1.199,0.686-2.132-0.114s-11.191-11.31-14.389-13.252
 c-3.198-1.942-4.53-4.112-4.53-5.026S86.254,145.208,91.716,143.951z"></path>
<path data-tooltip-text="Abdominals" class="tooltip-trigger" fill="url(#SVGID_5_wfront)" d="M85.211,168.456c0,0-0.241-3.047-4.103-3.047c0,0-3.14,1.523-4.587,3.164
 c-1.449,1.641-10.622,11.602-11.708,12.188c0,0-1.087,0.703-0.965,4.219c0.119,3.516,0.24,4.688,1.567,4.805
 c1.328,0.117,8.33-3.398,14.123-3.75s5.914-3.984,5.914-3.984L85.211,168.456z"></path>
<path data-tooltip-text="Abdominals" class="tooltip-trigger" fill="url(#SVGID_38_wfront)" d="M87.008,168.456c0,0,0.241-3.047,4.103-3.047c0,0,3.14,1.523,4.587,3.164
 c1.449,1.641,10.622,11.602,11.708,12.188c0,0,1.087,0.703,0.965,4.219c-0.119,3.516-0.24,4.688-1.567,4.805
 c-1.328,0.117-8.33-3.398-14.123-3.75s-5.914-3.984-5.914-3.984L87.008,168.456z"></path>
<path data-tooltip-text="Abdominals" class="tooltip-trigger" fill="url(#SVGID_6_wfront)" d="M85.586,192.323c0,0-0.122-3.456-1.827-4.387c-1.708-0.931-7.926-0.266-8.779,0.399
 s-4.788,1.862-6.103,4.001c-1.316,2.138-3.959,6.007-4.092,7.072c-0.133,1.065-0.133,5.247,1.973,6.446
 s8.117-1.067,11.022-2.132s5.974-3.197,6.373-4.262C84.555,198.392,85.586,192.323,85.586,192.323z"></path>
<path data-tooltip-text="Abdominals" class="tooltip-trigger" fill="url(#SVGID_39_wfront)" d="M86.633,192.323c0,0,0.122-3.456,1.827-4.387c1.708-0.931,7.926-0.266,8.779,0.399
 s4.788,1.862,6.103,4.001c1.316,2.138,3.959,6.007,4.092,7.072c0.133,1.065,0.133,5.247-1.973,6.446
 s-8.117-1.067-11.022-2.132s-5.974-3.197-6.373-4.262C86.664,198.392,86.633,192.323,86.633,192.323z"></path>
<path data-tooltip-text="Abdominals" class="tooltip-trigger" fill="url(#SVGID_7_wfront)" d="M66.146,213.659c0,0,0.354-3,1.65-3.25c1.295-0.25,11.429-1.125,12.019-1
 c0.588,0.125,4.359,1.375,4.949,2.875c0.589,1.5,0.706,6.875,0.706,6.875s-0.095,15.89-0.054,16.917
 c0.083,2.083,0.167,24.417,0.417,30.417c0.016,0.386-5.749-1.854-6.209-2.225c-3.262-2.634-4.83-6.817-5.976-10.716
 c-3.113-10.591-6.065-21.455-7.228-32.464C66.165,218.664,65.86,216.096,66.146,213.659z"></path>
<path data-tooltip-text="Abdominals" class="tooltip-trigger" fill="url(#SVGID_40_wfront)" d="M106.074,213.659c0,0-0.354-3-1.65-3.25c-1.295-0.25-11.429-1.125-12.019-1
 c-0.588,0.125-4.359,1.375-4.949,2.875c-0.589,1.5-0.706,6.875-0.706,6.875s0.095,15.89,0.054,16.917
 c-0.083,2.083-0.167,24.417-0.417,30.417c-0.016,0.386,5.749-1.854,6.209-2.225c3.262-2.634,4.83-6.817,5.976-10.716
 c3.113-10.591,6.065-21.455,7.228-32.464C106.055,218.664,106.36,216.096,106.074,213.659z"></path>
</g>


<!-- Obliques (Left) -->
<linearGradient id="SVGID_9_wfront" gradientUnits="userSpaceOnUse" x1="42.3745" y1="226.4917" x2="42.3745" y2="280.0161">
<stop offset="0" style="stop-color: rgb(124,111,80);"></stop>
<stop offset="1" style="stop-color: rgb(127,113,51);"></stop>
</linearGradient>

<!-- Finger Flexors Gradients -->
<linearGradient id="SVGID_finger_flexors_left" gradientUnits="userSpaceOnUse" x1="39.958" y1="238.0996" x2="71.0874" y2="238.0996">
<stop offset="0" style="stop-color: rgb(177,200,135);"></stop>
<stop offset="1" style="stop-color: rgb(166,196,106);"></stop>
</linearGradient>
<linearGradient id="SVGID_finger_flexors_right" gradientUnits="userSpaceOnUse" x1="39.958" y1="238.0996" x2="71.0874" y2="238.0996" gradientTransform="matrix(-1 0 0 1 150.9072 0)">
<stop offset="0" style="stop-color: rgb(177,200,135);"></stop>
<stop offset="1" style="stop-color: rgb(166,196,106);"></stop>
</linearGradient>


<!-- Peroneus Longus Gradients -->
<linearGradient id="SVGID_peroneus_left" gradientUnits="userSpaceOnUse" x1="55" y1="450" x2="75" y2="510">
<stop offset="0" style="stop-color: rgb(150,106,132);"></stop>
<stop offset="1" style="stop-color: rgb(145,86,123);"></stop>
</linearGradient>
<linearGradient id="SVGID_peroneus_right" gradientUnits="userSpaceOnUse" x1="55" y1="450" x2="75" y2="510" gradientTransform="matrix(-1 0 0 1 150.9072 0)">
<stop offset="0" style="stop-color: rgb(150,106,132);"></stop>
<stop offset="1" style="stop-color: rgb(145,86,123);"></stop>
</linearGradient>


<!-- Sternocleidomastoid (Left) -->
<linearGradient id="SVGID_sternocleidomastoid_left" gradientUnits="userSpaceOnUse" x1="72.0767" y1="74.3149" x2="84.354" y2="74.3149">
<stop offset="0" style="stop-color: rgb(171,104,149);"></stop>
<stop offset="1" style="stop-color: rgb(176,36,134);"></stop>
</linearGradient>

<!-- Sternocleidomastoid (Right) -->
<linearGradient id="SVGID_sternocleidomastoid_right" gradientUnits="userSpaceOnUse" x1="50.7642" y1="74.3149" x2="63.0415" y2="74.3149" gradientTransform="matrix(-1 0 0 1 150.9072 0)">
<stop offset="0" style="stop-color: rgb(171,104,149);"></stop>
<stop offset="1" style="stop-color: rgb(176,36,134);"></stop>
</linearGradient>

<g id="subclavius" class="muscle">
<path data-tooltip-text="Sternocleidomastoid" class="tooltip-trigger" fill="url(#SVGID_sternocleidomastoid_left)" d="M79.625,59.367c-0.939-0.11-2.208-0.208-3.958-0.583c-1.819-0.39-3.59-1.375-3.59-1.375
 s0.635,4.049,0.518,8.379l3.032,23.5c1.176-0.28,2.213-1.002,3.373-1.296c3.042-0.771,5.354,3.229,5.354,3.229L79.625,59.367z"></path>
<path data-tooltip-text="Sternocleidomastoid" class="tooltip-trigger" fill="url(#SVGID_sternocleidomastoid_right)" d="M92.595,59.367c0.939-0.11,2.208-0.208,3.958-0.583c1.819-0.39,3.59-1.375,3.59-1.375
 s-0.635,4.049-0.518,8.379l-3.032,23.5c-1.176-0.28-2.213-1.002-3.373-1.296c-3.042-0.771-5.354,3.229-5.354,3.229L92.595,59.367z"></path>
</g>


<!-- Biceps (Left) -->
<linearGradient id="SVGID_biceps_left" gradientUnits="userSpaceOnUse" x1="20.9575" y1="150.5649" x2="42.5825" y2="150.5649">
<stop offset="0" style="stop-color: rgb(203,174,104);"></stop>
<stop offset="1" style="stop-color: rgb(208,168,70);"></stop>
</linearGradient>

<!-- Biceps (Right) -->
<linearGradient id="SVGID_biceps_right" gradientUnits="userSpaceOnUse" x1="-0.355" y1="150.5649" x2="21.27" y2="150.5649" gradientTransform="matrix(-1 0 0 1 150.9072 0)">
<stop offset="0" style="stop-color: rgb(203,174,104);"></stop>
<stop offset="1" style="stop-color: rgb(208,168,70);"></stop>
</linearGradient>

<g id="biceps" class="muscle">
<path data-tooltip-text="Biceps" class="tooltip-trigger" fill="url(#SVGID_biceps_left)" d="M36.45,187.617c-5.258-1.045-6.659-6.583-5.45-8.541c1.005-1.628,6.303-11.309,9.081-16.53
 c0.079-0.392,0.159-0.783,0.236-1.171c0.754-3.76,1.41-7.228,1.553-7.981c-1.557-1.074-11.169-8.753-2.412-29.61l3.125-6
 c0,0-0.666-5.063-2.666-9.563c0,0-7.5,8.688-8.875,11.313c0,0-2.167,3.583-3.25,10.292l-0.709,4.333c0,0-5.625,26-6.125,43.125
 c0,0,0.126,4.375,0.792,6.625l2.417,9c0,0,5.291-2.125,7.041-5.25c0,0,2.561,1.977,5.264,3.323
 c-0.009-0.842-0.032-1.649-0.074-2.406C36.398,188.576,36.416,188.22,36.45,187.617z"></path>
<path data-tooltip-text="Biceps" class="tooltip-trigger" fill="url(#SVGID_biceps_right)" d="M135.77,187.617c5.258-1.045,6.659-6.583,5.45-8.541c-1.005-1.628-6.303-11.309-9.081-16.53
 c-0.079-0.392-0.159-0.783-0.236-1.171c-0.754-3.76-1.41-7.228-1.553-7.981c1.557-1.074,11.169-8.753,2.412-29.61l-3.125-6
 c0,0,0.666-5.063,2.666-9.563c0,0,7.5,8.688,8.875,11.313c0,0,2.167,3.583,3.25,10.292l0.709,4.333c0,0,5.625,26,6.125,43.125
 c0,0-0.126,4.375-0.792,6.625l-2.417,9c0,0-5.291-2.125-7.041-5.25c0,0-2.561,1.977-5.264,3.323
 c0.009-0.842,0.032-1.649,0.074-2.406C135.822,188.576,135.804,188.22,135.77,187.617z"></path>
</g>


<!-- Sartorius & Abductors (Left) -->
<linearGradient id="SVGID_sartorius_abductors_left" gradientUnits="userSpaceOnUse" x1="52.5015" y1="311.9917" x2="85.9258" y2="311.9917">
<stop offset="0" style="stop-color: rgb(73,79,117);"></stop>
<stop offset="1" style="stop-color: rgb(50,55,125);"></stop>
</linearGradient>

<!-- Sartorius & Abductors (Right) -->
<linearGradient id="SVGID_sartorius_abductors_right" gradientUnits="userSpaceOnUse" x1="31.189" y1="311.9917" x2="64.6133" y2="311.9917" gradientTransform="matrix(-1 0 0 1 150.9072 0)">
<stop offset="0" style="stop-color: rgb(73,79,117);"></stop>
<stop offset="1" style="stop-color: rgb(50,55,125);"></stop>
</linearGradient>

<g id="iliopsoas_hip_flexors" class="muscle">
<path data-tooltip-text="Sartorius &amp; Abductors" class="tooltip-trigger" fill="url(#SVGID_sartorius_abductors_left)" d="M69,251.409c0,0-1.763-5.546-9.461-12.067c-2.625-2.457-5.372-3.936-5.372-3.936
 c-1.083,0.712-1.584,4.503-1.584,4.503c-1.25,10.75,12.25,28.75,19,39.5s7,64,7.25,68s0.542,37.458,0.542,37.458
 c1.105,4.424,2.601,3.761,2.932,3.549c0.04-1.197,0.095-2.517,0.156-3.895c0.217-7.215,0.435-16.163,0.435-20.069
 c0-6.834-0.333-47.836,0-50.002c0.334-2.166,0.5-32.166,1.5-34.166c0.306-0.612,0.7-1.095,1.103-1.489c0,0,0.167-0.042,0.37-0.056
 l0.056-0.083C85.926,278.656,71.5,257.159,69,251.409z"></path>
<path data-tooltip-text="Sartorius &amp; Abductors" class="tooltip-trigger" fill="url(#SVGID_sartorius_abductors_right)" d="M103.22,251.409c0,0,1.763-5.546,9.461-12.067c2.625-2.457,5.372-3.936,5.372-3.936
 c1.083,0.712,1.584,4.503,1.584,4.503c1.25,10.75-12.25,28.75-19,39.5s-7,64-7.25,68s-0.542,37.458-0.542,37.458
 c-1.105,4.424-2.601,3.761-2.932,3.549c-0.04-1.197-0.095-2.517-0.156-3.895c-0.217-7.215-0.435-16.163-0.435-20.069
 c0-6.834,0.333-47.836,0-50.002c-0.334-2.166-0.5-32.166-1.5-34.166c-0.306-0.612-0.7-1.095-1.103-1.489
 c0,0-0.167-0.042-0.37-0.056l-0.056-0.083C86.294,278.656,100.72,257.159,103.22,251.409z"></path>
</g>


<!-- Tensor Fasciae Latae (Left) -->
<linearGradient id="SVGID_rectus_left" gradientUnits="userSpaceOnUse" x1="47.9463" y1="282.9087" x2="47.9463" y2="390.8105">
<stop offset="0" style="stop-color: rgb(153,128,164);"></stop>
<stop offset="1" style="stop-color: rgb(154,103,172);"></stop>
</linearGradient>

<linearGradient id="SVGID_abductors_left" gradientUnits="userSpaceOnUse" x1="35" y1="280" x2="60" y2="360">
<stop offset="0" style="stop-color: rgb(153,128,164);"></stop>
<stop offset="1" style="stop-color: rgb(154,103,172);"></stop>
</linearGradient>

<!-- Tensor Fasciae Latae (Right) -->
<linearGradient id="SVGID_rectus_right" gradientUnits="userSpaceOnUse" x1="26.6338" y1="282.9092" x2="26.6338" y2="390.8096" gradientTransform="matrix(-1 0 0 1 150.9072 0)">
<stop offset="0" style="stop-color: rgb(153,128,164);"></stop>
<stop offset="1" style="stop-color: rgb(154,103,172);"></stop>
</linearGradient>

<linearGradient id="SVGID_abductors_right" gradientUnits="userSpaceOnUse" x1="35" y1="280" x2="60" y2="360" gradientTransform="matrix(-1 0 0 1 150.9072 0)">
<stop offset="0" style="stop-color: rgb(153,128,164);"></stop>
<stop offset="1" style="stop-color: rgb(154,103,172);"></stop>
</linearGradient>

<!-- Tensor Fasciae Latae -->
<g id="tensor_fasciae_latae" class="muscle">
<path data-tooltip-text="Tensor Fasciae Latae" class="tooltip-trigger" fill="url(#SVGID_rectus_left)" d="M53.667,357.659c-2.25-4.25-18.584-74.75-18.584-74.75l-0.439,0.489
 c0.635,6.965,2.086,18.885,5.356,34.011c4.922,22.764,11.666,59.833,11.833,60.5c0.125,0.502,1.507,9.974,1.935,12.901
 c0.193-0.118,0.367-0.271,0.566-0.401c6.833-4.5,6.917-12.667,6.917-13.917C61.25,372.826,55.917,361.909,53.667,357.659z"></path>
<path data-tooltip-text="Tensor Fasciae Latae" class="tooltip-trigger" fill="url(#SVGID_rectus_right)" d="M118.553,357.659c2.25-4.25,18.584-74.75,18.584-74.75l0.439,0.489
 c-0.635,6.965-2.086,18.885-5.356,34.011c-4.922,22.764-11.666,59.833-11.833,60.5c-0.125,0.502-1.507,9.974-1.935,12.901
 c-0.193-0.118-0.367-0.271-0.566-0.401c-6.833-4.5-6.917-12.667-6.917-13.917C110.97,372.826,116.303,361.909,118.553,357.659z"></path>
<path data-tooltip-text="Tensor Fasciae Latae" class="tooltip-trigger" fill="url(#SVGID_abductors_left)" d="M48.667,238.992c0.416-0.917,1.916-3.833,1.916-3.833s-1.5-2.417-3.25-4.25
 c-1.148-1.203-3.688-3.189-5.305-4.417c-1.309,4.449-2.529,8.75-2.529,8.75s-4.666,21.5-5.332,41.333c0,0,0.037,1.204,0.199,3.441
 c0.438-1.342,1.002-2.995,1.717-4.941c2.083-5.667,10.5-19,10.334-21.75C46.25,250.575,48.249,239.909,48.667,238.992z"></path>
<path data-tooltip-text="Tensor Fasciae Latae" class="tooltip-trigger" fill="url(#SVGID_abductors_right)" d="M123.553,238.992c-0.416-0.917-1.916-3.833-1.916-3.833s1.5-2.417,3.25-4.25
 c1.148-1.203,3.688-3.189,5.305-4.417c1.309,4.449,2.529,8.75,2.529,8.75s4.666,21.5,5.332,41.333c0,0-0.037,1.204-0.199,3.441
 c-0.438-1.342-1.002-2.995-1.717-4.941c-2.083-5.667-10.5-19-10.334-21.75C125.97,250.575,123.971,239.909,123.553,238.992z"></path>
</g>



<g id="tooltip" visibility="hidden">
<rect x="2" y="2" width="80" height="24" fill="black" opacity="0.4" rx="2" ry="2"/>
<rect width="80" height="24" fill="white" rx="2" ry="2"/>
<polygon points="7,0 12,-10 17,0" fill="black" opacity="0.4"></polygon>
<polygon points="5,0 10,-10 15,0" fill="white"></polygon>
<text x="4" y="6">Tooltip</text>
</g>

<script type="text/ecmascript"><![CDATA[
(function () {
  var svg = document.querySelector('svg');
  var tooltip = svg.getElementById('tooltip');
  var tooltipText = tooltip.getElementsByTagName('text')[0];
  var tooltipRects = tooltip.getElementsByTagName('rect');
  var tooltipPolygons = tooltip.getElementsByTagName('polygon');
  var triggers = svg.getElementsByClassName('tooltip-trigger');

  for (var i = 0; i < triggers.length; i++) {
    triggers[i].addEventListener('mousemove', showTooltip);
    triggers[i].addEventListener('mouseout', hideTooltip);
  }

  function showTooltip(evt) {
    var CTM = svg.getScreenCTM();
    var x = (evt.clientX - CTM.e + 6) / CTM.a;
    var y = (evt.clientY - CTM.f + 20) / CTM.d;
    
    tooltipText.firstChild.data = evt.target.getAttributeNS(null, "data-tooltip-text");
    var length = tooltipText.getComputedTextLength();
    var tooltipWidth = length + 8;
    
    for (var i = 0; i < tooltipRects.length; i++) {
      tooltipRects[i].setAttributeNS(null, "width", tooltipWidth);
    }
    
    // Get SVG viewBox dimensions
    var viewBox = svg.viewBox.baseVal;
    var svgWidth = viewBox.width;
    
    // Check if tooltip would overflow on the right
    if (x + tooltipWidth > svgWidth) {
      x = x - tooltipWidth - 12; // Flip to left side
      // Move arrow to right side
      tooltipPolygons[0].setAttributeNS(null, "points", (tooltipWidth - 7) + ",0 " + (tooltipWidth - 12) + ",-10 " + (tooltipWidth - 17) + ",0");
      tooltipPolygons[1].setAttributeNS(null, "points", (tooltipWidth - 5) + ",0 " + (tooltipWidth - 10) + ",-10 " + (tooltipWidth - 15) + ",0");
    } else {
      // Arrow on left side (default)
      tooltipPolygons[0].setAttributeNS(null, "points", "7,0 12,-10 17,0");
      tooltipPolygons[1].setAttributeNS(null, "points", "5,0 10,-10 15,0");
    }
    
    tooltip.setAttributeNS(null, "transform", "translate(" + x + " " + y + ")");
    tooltip.setAttributeNS(null, "visibility", "visible");
  }

  function hideTooltip(evt) {
    tooltip.setAttributeNS(null, "visibility", "hidden");
  }
})()
]]></script>

</svg>
